<?xml version="1.0" encoding="UTF-8"?>
<!--Generator: Apple Native CoreSVG 175.5-->
<!DOCTYPE svg
PUBLIC "-//W3C//DTD SVG 1.1//EN"
       "http://www.w3.org/Graphics/SVG/1.1/DTD/svg11.dtd">
<svg version="1.1" xmlns="http://www.w3.org/2000/svg" xmlns:xlink="http://www.w3.org/1999/xlink" width="3300" height="2200">
 <!--glyph: "", point size: 100.0, font version: "18.0d12e2", template writer version: "101"-->
 <style>.monochrome-0 {fill:#000000}

.multicolor-0:black {fill:#000000}

.SFSymbolsPreview000000 {fill:#000000;opacity:1.0}
</style>
 <g id="Notes">
  <rect height="2200" id="artboard" style="fill:white;opacity:1" width="3300" x="0" y="0"/>
  <line style="fill:none;stroke:black;opacity:1;stroke-width:0.5;" x1="263" x2="3036" y1="292" y2="292"/>
  <text style="stroke:none;fill:black;font-family:sans-serif;font-size:13;font-weight:bold;" transform="matrix(1 0 0 1 263 322)">Weight/Scale Variations</text>
  <text style="stroke:none;fill:black;font-family:sans-serif;font-size:13;text-anchor:middle;" transform="matrix(1 0 0 1 559.711 322)">Ultralight</text>
  <text style="stroke:none;fill:black;font-family:sans-serif;font-size:13;text-anchor:middle;" transform="matrix(1 0 0 1 856.422 322)">Thin</text>
  <text style="stroke:none;fill:black;font-family:sans-serif;font-size:13;text-anchor:middle;" transform="matrix(1 0 0 1 1153.13 322)">Light</text>
  <text style="stroke:none;fill:black;font-family:sans-serif;font-size:13;text-anchor:middle;" transform="matrix(1 0 0 1 1449.84 322)">Regular</text>
  <text style="stroke:none;fill:black;font-family:sans-serif;font-size:13;text-anchor:middle;" transform="matrix(1 0 0 1 1746.56 322)">Medium</text>
  <text style="stroke:none;fill:black;font-family:sans-serif;font-size:13;text-anchor:middle;" transform="matrix(1 0 0 1 2043.27 322)">Semibold</text>
  <text style="stroke:none;fill:black;font-family:sans-serif;font-size:13;text-anchor:middle;" transform="matrix(1 0 0 1 2339.98 322)">Bold</text>
  <text style="stroke:none;fill:black;font-family:sans-serif;font-size:13;text-anchor:middle;" transform="matrix(1 0 0 1 2636.69 322)">Heavy</text>
  <text style="stroke:none;fill:black;font-family:sans-serif;font-size:13;text-anchor:middle;" transform="matrix(1 0 0 1 2933.4 322)">Black</text>
  <line style="fill:none;stroke:black;opacity:1;stroke-width:0.5;" x1="263" x2="3036" y1="1903" y2="1903"/>
  <g transform="matrix(1 0 0 1 263 1933)">
   <path d="M9.24805 0.830078C13.5547 0.830078 17.1387-2.74414 17.1387-7.05078C17.1387-11.3574 13.5449-14.9316 9.23828-14.9316C4.94141-14.9316 1.36719-11.3574 1.36719-7.05078C1.36719-2.74414 4.95117 0.830078 9.24805 0.830078ZM9.24805-0.654297C5.70312-0.654297 2.87109-3.49609 2.87109-7.05078C2.87109-10.6055 5.69336-13.4473 9.23828-13.4473C12.793-13.4473 15.6445-10.6055 15.6445-7.05078C15.6445-3.49609 12.8027-0.654297 9.24805-0.654297ZM5.6543-7.05078C5.6543-6.62109 5.95703-6.32812 6.40625-6.32812L8.50586-6.32812L8.50586-4.20898C8.50586-3.76953 8.79883-3.4668 9.22852-3.4668C9.67773-3.4668 9.9707-3.76953 9.9707-4.20898L9.9707-6.32812L12.0898-6.32812C12.5293-6.32812 12.832-6.62109 12.832-7.05078C12.832-7.49023 12.5293-7.79297 12.0898-7.79297L9.9707-7.79297L9.9707-9.90234C9.9707-10.3516 9.67773-10.6543 9.22852-10.6543C8.79883-10.6543 8.50586-10.3516 8.50586-9.90234L8.50586-7.79297L6.40625-7.79297C5.95703-7.79297 5.6543-7.49023 5.6543-7.05078Z"/>
  </g>
  <g transform="matrix(1 0 0 1 281.867 1933)">
   <path d="M11.709 2.91016C17.1582 2.91016 21.6699-1.61133 21.6699-7.05078C21.6699-12.5 17.1484-17.0117 11.6992-17.0117C6.25977-17.0117 1.74805-12.5 1.74805-7.05078C1.74805-1.61133 6.26953 2.91016 11.709 2.91016ZM11.709 1.25C7.09961 1.25 3.41797-2.44141 3.41797-7.05078C3.41797-11.6602 7.08984-15.3516 11.6992-15.3516C16.3086-15.3516 20.0098-11.6602 20.0098-7.05078C20.0098-2.44141 16.3184 1.25 11.709 1.25ZM7.17773-7.05078C7.17773-6.57227 7.50977-6.25 8.00781-6.25L10.8789-6.25L10.8789-3.36914C10.8789-2.88086 11.2109-2.53906 11.6895-2.53906C12.1777-2.53906 12.5195-2.87109 12.5195-3.36914L12.5195-6.25L15.4004-6.25C15.8887-6.25 16.2305-6.57227 16.2305-7.05078C16.2305-7.53906 15.8887-7.88086 15.4004-7.88086L12.5195-7.88086L12.5195-10.752C12.5195-11.25 12.1777-11.5918 11.6895-11.5918C11.2109-11.5918 10.8789-11.25 10.8789-10.752L10.8789-7.88086L8.00781-7.88086C7.50977-7.88086 7.17773-7.53906 7.17773-7.05078Z"/>
  </g>
  <g transform="matrix(1 0 0 1 305.646 1933)">
   <path d="M14.9707 5.66406C21.9336 5.66406 27.6953-0.0976562 27.6953-7.05078C27.6953-14.0137 21.9238-19.7754 14.9609-19.7754C8.00781-19.7754 2.25586-14.0137 2.25586-7.05078C2.25586-0.0976562 8.01758 5.66406 14.9707 5.66406ZM14.9707 3.84766C8.93555 3.84766 4.08203-1.01562 4.08203-7.05078C4.08203-13.0957 8.92578-17.9492 14.9609-17.9492C21.0059-17.9492 25.8691-13.0957 25.8691-7.05078C25.8691-1.01562 21.0156 3.84766 14.9707 3.84766ZM9.19922-7.05078C9.19922-6.5332 9.57031-6.17188 10.1172-6.17188L14.0625-6.17188L14.0625-2.2168C14.0625-1.67969 14.4336-1.29883 14.9512-1.29883C15.4883-1.29883 15.8594-1.66992 15.8594-2.2168L15.8594-6.17188L19.8145-6.17188C20.3516-6.17188 20.7324-6.5332 20.7324-7.05078C20.7324-7.59766 20.3613-7.96875 19.8145-7.96875L15.8594-7.96875L15.8594-11.9141C15.8594-12.4609 15.4883-12.8418 14.9512-12.8418C14.4336-12.8418 14.0625-12.4609 14.0625-11.9141L14.0625-7.96875L10.1172-7.96875C9.57031-7.96875 9.19922-7.59766 9.19922-7.05078Z"/>
  </g>
  <text style="stroke:none;fill:black;font-family:sans-serif;font-size:13;font-weight:bold;" transform="matrix(1 0 0 1 263 1953)">Design Variations</text>
  <text style="stroke:none;fill:black;font-family:sans-serif;font-size:13;" transform="matrix(1 0 0 1 263 1971)">Symbols are supported in up to nine weights and three scales.</text>
  <text style="stroke:none;fill:black;font-family:sans-serif;font-size:13;" transform="matrix(1 0 0 1 263 1989)">For optimal layout with text and other symbols, vertically align</text>
  <text style="stroke:none;fill:black;font-family:sans-serif;font-size:13;" transform="matrix(1 0 0 1 263 2007)">symbols with the adjacent text.</text>
  <line style="fill:none;stroke:#00AEEF;stroke-width:0.5;opacity:1.0;" x1="776" x2="776" y1="1919" y2="1933"/>
  <g transform="matrix(1 0 0 1 776 1933)">
   <path d="M3.31055 0.15625C3.82812 0.15625 4.08203-0.0390625 4.26758-0.585938L5.52734-4.0332L11.2891-4.0332L12.5488-0.585938C12.7344-0.0390625 12.9883 0.15625 13.4961 0.15625C14.0137 0.15625 14.3457-0.15625 14.3457-0.644531C14.3457-0.810547 14.3164-0.966797 14.2383-1.17188L9.6582-13.3691C9.43359-13.9648 9.0332-14.2676 8.4082-14.2676C7.80273-14.2676 7.39258-13.9746 7.17773-13.3789L2.59766-1.16211C2.51953-0.957031 2.49023-0.800781 2.49023-0.634766C2.49023-0.146484 2.80273 0.15625 3.31055 0.15625ZM6.00586-5.51758L8.37891-12.0898L8.42773-12.0898L10.8008-5.51758Z"/>
  </g>
  <line style="fill:none;stroke:#00AEEF;stroke-width:0.5;opacity:1.0;" x1="793.197" x2="793.197" y1="1919" y2="1933"/>
  <text style="stroke:none;fill:black;font-family:sans-serif;font-size:13;font-weight:bold;" transform="matrix(1 0 0 1 776 1953)">Margins</text>
  <text style="stroke:none;fill:black;font-family:sans-serif;font-size:13;" transform="matrix(1 0 0 1 776 1971)">Leading and trailing margins on the left and right side of each symbol</text>
  <text style="stroke:none;fill:black;font-family:sans-serif;font-size:13;" transform="matrix(1 0 0 1 776 1989)">can be adjusted by modifying the x-location of the margin guidelines.</text>
  <text style="stroke:none;fill:black;font-family:sans-serif;font-size:13;" transform="matrix(1 0 0 1 776 2007)">Modifications are automatically applied proportionally to all</text>
  <text style="stroke:none;fill:black;font-family:sans-serif;font-size:13;" transform="matrix(1 0 0 1 776 2025)">scales and weights.</text>
  <g transform="matrix(1 0 0 1 1289 1933)">
   <path d="M2.8418 1.86523L4.54102 3.57422C5.40039 4.44336 6.38672 4.38477 7.31445 3.35938L18.0078-8.42773L17.041-9.4043L6.42578 2.27539C6.07422 2.67578 5.74219 2.77344 5.27344 2.30469L4.10156 1.14258C3.63281 0.683594 3.74023 0.341797 4.14062-0.0195312L15.6152-10.8203L14.6387-11.7871L3.04688-0.898438C2.06055 0.0195312 1.98242 0.996094 2.8418 1.86523ZM9.25781-16.3281C8.83789-15.918 8.80859-15.3418 9.04297-14.9512C9.27734-14.5898 9.73633-14.3555 10.3809-14.5215C11.8457-14.8633 13.3691-14.9219 14.7949-13.9844L14.209-12.5293C13.8672-11.6992 14.043-11.1133 14.5801-10.5664L16.875-8.25195C17.3633-7.76367 17.7734-7.74414 18.3398-7.8418L19.4043-8.03711L20.0684-7.36328L20.0293-6.80664C19.9902-6.30859 20.1172-5.92773 20.6055-5.44922L21.3672-4.70703C21.8457-4.22852 22.4609-4.19922 22.9297-4.66797L25.8398-7.58789C26.3086-8.05664 26.2891-8.65234 25.8105-9.13086L25.0391-9.89258C24.5605-10.3711 24.1895-10.5273 23.7109-10.4883L23.1348-10.4395L22.4902-11.0742L22.7344-12.1973C22.8613-12.7637 22.7051-13.2031 22.1191-13.7891L19.9219-15.9766C16.582-19.2969 12.1484-19.2188 9.25781-16.3281ZM10.752-15.957C13.1836-17.7344 16.4746-17.4316 18.7012-15.2051L21.1328-12.793C21.3672-12.5586 21.4062-12.373 21.3379-12.0312L21.0156-10.5469L22.5195-9.0625L23.5059-9.12109C23.7598-9.13086 23.8379-9.11133 24.0332-8.91602L24.6094-8.33984L22.168-5.89844L21.5918-6.47461C21.3965-6.66992 21.3672-6.74805 21.377-7.01172L21.4453-7.98828L19.9512-9.47266L18.4277-9.21875C18.1055-9.15039 17.959-9.17969 17.7148-9.41406L15.7129-11.416C15.459-11.6504 15.4297-11.8164 15.5859-12.1875L16.4648-14.2773C14.9023-15.7324 12.8711-16.3574 10.8398-15.7617C10.6836-15.7227 10.625-15.8496 10.752-15.957Z"/>
  </g>
  <text style="stroke:none;fill:black;font-family:sans-serif;font-size:13;font-weight:bold;" transform="matrix(1 0 0 1 1289 1953)">Exporting</text>
  <text style="stroke:none;fill:black;font-family:sans-serif;font-size:13;" transform="matrix(1 0 0 1 1289 1971)">Symbols should be outlined when exporting to ensure the</text>
  <text style="stroke:none;fill:black;font-family:sans-serif;font-size:13;" transform="matrix(1 0 0 1 1289 1989)">design is preserved when submitting to Xcode.</text>
  <text id="template-version" style="stroke:none;fill:black;font-family:sans-serif;font-size:13;text-anchor:end;" transform="matrix(1 0 0 1 3036 1933)">Template v.4.0</text>
  <text style="stroke:none;fill:black;font-family:sans-serif;font-size:13;text-anchor:end;" transform="matrix(1 0 0 1 3036 1951)">Requires Xcode 14 or greater</text>
  <text id="descriptive-name" style="stroke:none;fill:black;font-family:sans-serif;font-size:13;text-anchor:end;" transform="matrix(1 0 0 1 3036 1969)">Generated from logo.github.circle.fill</text>
  <text style="stroke:none;fill:black;font-family:sans-serif;font-size:13;text-anchor:end;" transform="matrix(1 0 0 1 3036 1987)">Typeset at 100 points</text>
  <text style="stroke:none;fill:black;font-family:sans-serif;font-size:13;" transform="matrix(1 0 0 1 263 726)">Small</text>
  <text style="stroke:none;fill:black;font-family:sans-serif;font-size:13;" transform="matrix(1 0 0 1 263 1156)">Medium</text>
  <text style="stroke:none;fill:black;font-family:sans-serif;font-size:13;" transform="matrix(1 0 0 1 263 1586)">Large</text>
 </g>
 <g id="Guides">
  <g id="H-reference" style="fill:#27AAE1;stroke:none;" transform="matrix(1 0 0 1 339 696)">
   <path d="M0.993654 0L3.63775 0L29.3281-67.1323L30.0303-67.1323L30.0303-70.459L28.1226-70.459ZM11.6885-24.4799L46.9815-24.4799L46.2315-26.7285L12.4385-26.7285ZM55.1196 0L57.7637 0L30.6382-70.459L29.4326-70.459L29.4326-67.1323Z"/>
  </g>
  <line id="Baseline-S" style="fill:none;stroke:#27AAE1;opacity:1;stroke-width:0.5;" x1="263" x2="3036" y1="696" y2="696"/>
  <line id="Capline-S" style="fill:none;stroke:#27AAE1;opacity:1;stroke-width:0.5;" x1="263" x2="3036" y1="625.541" y2="625.541"/>
  <g id="H-reference" style="fill:#27AAE1;stroke:none;" transform="matrix(1 0 0 1 339 1126)">
   <path d="M0.993654 0L3.63775 0L29.3281-67.1323L30.0303-67.1323L30.0303-70.459L28.1226-70.459ZM11.6885-24.4799L46.9815-24.4799L46.2315-26.7285L12.4385-26.7285ZM55.1196 0L57.7637 0L30.6382-70.459L29.4326-70.459L29.4326-67.1323Z"/>
  </g>
  <line id="Baseline-M" style="fill:none;stroke:#27AAE1;opacity:1;stroke-width:0.5;" x1="263" x2="3036" y1="1126" y2="1126"/>
  <line id="Capline-M" style="fill:none;stroke:#27AAE1;opacity:1;stroke-width:0.5;" x1="263" x2="3036" y1="1055.54" y2="1055.54"/>
  <g id="H-reference" style="fill:#27AAE1;stroke:none;" transform="matrix(1 0 0 1 339 1556)">
   <path d="M0.993654 0L3.63775 0L29.3281-67.1323L30.0303-67.1323L30.0303-70.459L28.1226-70.459ZM11.6885-24.4799L46.9815-24.4799L46.2315-26.7285L12.4385-26.7285ZM55.1196 0L57.7637 0L30.6382-70.459L29.4326-70.459L29.4326-67.1323Z"/>
  </g>
  <line id="Baseline-L" style="fill:none;stroke:#27AAE1;opacity:1;stroke-width:0.5;" x1="263" x2="3036" y1="1556" y2="1556"/>
  <line id="Capline-L" style="fill:none;stroke:#27AAE1;opacity:1;stroke-width:0.5;" x1="263" x2="3036" y1="1485.54" y2="1485.54"/>
  <line id="left-margin-Regular-M" style="fill:none;stroke:#00AEEF;stroke-width:0.5;opacity:1.0;" x1="1391.01" x2="1391.01" y1="1030.79" y2="1150.12"/>
  <line id="right-margin-Regular-M" style="fill:none;stroke:#00AEEF;stroke-width:0.5;opacity:1.0;" x1="1508.68" x2="1508.68" y1="1030.79" y2="1150.12"/>
 </g>
 <g id="Symbols">
  <g id="Black-L" transform="matrix(1 0 0 1 2856.28 1556)">
   <path class="monochrome-0 multicolor-0:black SFSymbolsPreview000000" d="M139.891-61.0876C136.317-69.3442 131.469-76.4929 125.141-82.7783C118.859-89.0611 111.707-93.9518 103.451-97.4824C95.1938-101.013 86.4856-102.822 77.1212-102.822C67.7568-102.822 59.0486-101.055 50.7921-97.4824C42.5356-93.9093 35.4293-89.0611 29.1439-82.7783C22.8611-76.4956 17.9704-69.3442 14.4398-61.0876C10.9092-52.8311 9.10016-44.1229 9.10016-34.7585C9.10016-25.3942 10.8668-16.6833 14.4398-8.42943C18.0129-0.172882 22.8611 6.97585 29.1439 13.2613C35.4266 19.544 42.578 24.4347 50.8345 27.9653C59.0911 31.4959 67.7993 33.305 77.1637 33.305C86.528 33.305 95.2813 31.5383 103.493 27.9653C111.705 24.3922 118.856 19.544 125.184 13.2613C131.467 6.97848 136.357-0.172882 139.891-8.42943C143.464-16.686 145.23-25.3942 145.23-34.7585C145.23-44.1229 143.424-52.8735 139.891-61.0876ZM64.9131 11.4281C65.0778 11.0987 65.0778 10.889 65.0778 10.5596C65.0778 9.35894 65.0778 6.2989 64.9131 2.1605C51.3398 5.22053 48.4418-4.37914 48.4418-4.37914C46.2079-10.0502 42.9381-11.5776 42.9381-11.5776C38.4676-14.6376 43.2701-14.6376 43.2701-14.6376C48.2347-14.3056 50.8006-9.50838 50.8006-9.50838C55.1063-1.97791 62.1401-4.16936 65.0354-5.36998C65.5321-8.4751 66.7301-10.709 68.1405-11.9096C57.1755-13.1102 45.836-17.4133 45.836-36.1212C45.836-41.4602 47.7406-45.8856 50.9653-49.2005C50.4686-50.4011 48.7314-55.3656 51.462-62.2347C51.462-62.2347 55.6004-63.6 64.8733-57.2702C68.802-58.3061 72.943-58.8453 77.084-58.9649C81.2224-58.9649 85.4831-58.3061 89.2947-57.2702C98.6076-63.6 102.706-62.2347 102.706-62.2347C105.437-55.4081 103.697-50.4011 103.203-49.2005C106.308-45.766 108.332-41.4602 108.332-36.1212C108.332-17.2513 96.9925-13.1553 86.0275-11.9122C87.887-10.5018 89.2974-7.44181 89.2974-2.80667C89.2974 3.73296 89.2974 9.07198 89.2974 10.6046C89.2974 10.934 89.2974 11.1438 89.4621 11.4732C85.5308 12.5091 81.3924 13.0032 77.0893 13.0032C72.9828 12.9582 68.8444 12.4614 64.9131 11.4281Z"/>
  </g>
  <g id="Heavy-L" transform="matrix(1 0 0 1 2560.54 1556)">
   <path class="monochrome-0 multicolor-0:black SFSymbolsPreview000000" d="M138.024-60.709C134.498-68.8517 129.716-75.9148 123.464-82.1058C117.286-88.2844 110.21-93.1274 102.068-96.5918C93.9247-100.056 85.3489-101.856 76.1266-101.856C66.9043-101.856 58.3285-100.117 50.1858-96.5918C42.0431-93.0665 35.041-88.2844 28.85-82.1058C22.6714-75.9272 17.8284-68.8517 14.364-60.709C10.8996-52.5664 9.10016-43.9905 9.10016-34.7683C9.10016-25.546 10.8386-16.9578 14.364-8.82749C17.8893-0.684808 22.6714 6.37828 28.85 12.5693C35.0286 18.7479 42.1041 23.5909 50.2468 27.0553C58.3895 30.5197 66.9653 32.3191 76.1875 32.3191C85.4098 32.3191 94.059 30.5807 102.129 27.0553C110.198 23.5299 117.273 18.7479 123.525 12.5693C129.704 6.39064 134.547-0.684808 138.024-8.82749C141.549-16.9702 143.288-25.546 143.288-34.7683C143.288-43.9905 141.501-52.6273 138.024-60.709ZM63.5399 12.8394C63.7046 12.51 63.7046 12.272 63.7046 11.9426C63.7046 10.704 63.7046 7.56804 63.5399 3.29727C49.55 6.43321 46.5664-3.45065 46.5664-3.45065C44.2663-9.30176 40.8923-10.8574 40.8923-10.8574C36.2798-13.9933 41.2341-13.9933 41.2341-13.9933C46.3407-13.6516 48.9826-8.72199 48.9826-8.72199C53.4304-0.973505 60.6724-3.21264 63.6437-4.45121C64.1501-7.66047 65.3763-9.96056 66.8529-11.1991C55.5658-12.4377 43.8759-16.8732 43.8759-36.1592C43.8759-41.6685 45.8466-46.2077 49.1473-49.655C48.6408-50.8936 46.8472-56.0002 49.6537-63.0775C49.6537-63.0775 53.9245-64.4808 63.4913-57.9709C67.5241-59.0448 71.8072-59.6122 76.0904-59.7036C80.3611-59.7036 84.7357-59.0448 88.6894-57.9709C98.3047-64.4808 102.527-63.0775 102.527-63.0775C105.334-56.0612 103.528-50.8936 103.034-49.655C106.243-46.1164 108.305-41.6685 108.305-36.1592C108.305-16.7208 96.6149-12.511 85.3278-11.2115C87.2252-9.73491 88.7018-6.59896 88.7018-1.82173C88.7018 4.92619 88.7018 10.4355 88.7018 12.0159C88.7018 12.3453 88.7018 12.5833 88.8665 12.9127C84.8213 13.9866 80.5506 14.4807 76.1151 14.4807C71.8558 14.4073 67.585 13.9009 63.5399 12.8394Z"/>
  </g>
  <g id="Bold-L" transform="matrix(1 0 0 1 2265.04 1556)">
   <path class="monochrome-0 multicolor-0:black SFSymbolsPreview000000" d="M135.694-60.2442C132.234-68.2419 127.532-75.1915 121.376-81.271C115.326-87.3213 108.347-92.0992 100.35-95.4836C92.3517-98.8681 83.9357-100.651 74.8901-100.651C65.8445-100.651 57.4285-98.9439 49.4309-95.4836C41.4333-92.0234 34.5594-87.3213 28.4799-81.271C22.4296-75.2206 17.6517-68.2419 14.2672-60.2442C10.8828-52.2466 9.10016-43.8307 9.10016-34.785C9.10016-25.7394 10.807-17.2943 14.2672-9.32582C17.7275-1.3282 22.4296 5.62141 28.4799 11.7009C34.5303 17.7513 41.509 22.5291 49.5066 25.9136C57.5043 29.2981 65.9202 31.0806 74.9658 31.0806C84.0115 31.0806 92.5323 29.3738 100.425 25.9136C108.318 22.4533 115.297 17.7513 121.452 11.7009C127.502 5.65054 132.28-1.3282 135.694-9.32582C139.154-17.3234 140.861-25.7394 140.861-34.785C140.861-43.8307 139.108-52.3224 135.694-60.2442ZM61.8386 14.589C62.0033 14.2596 62.0033 13.99 62.0033 13.6606C62.0033 12.3737 62.0033 9.14101 61.8386 4.71037C47.3356 7.94303 44.2385-2.29412 44.2385-2.29412C41.8584-8.37021 38.3562-9.95741 38.3562-9.95741C33.567-13.1901 38.7147-13.1901 38.7147-13.1901C43.998-12.8315 46.7366-7.74209 46.7366-7.74209C51.361 0.279737 58.8596-2.02452 61.9276-3.31145C62.4508-6.649 63.7086-9.02901 65.2651-10.3159C53.5764-11.6029 41.4533-16.1982 41.4533-36.2075C41.4533-41.9251 43.5039-46.6094 46.9013-50.2165C46.378-51.5034 44.5212-56.7867 47.4245-64.1206C47.4245-64.1206 51.8551-65.5722 61.792-58.8373C65.9531-59.9596 70.4128-60.5585 74.8726-60.6184C79.3032-60.6184 83.8228-59.9596 87.9532-58.8373C97.9367-65.5722 102.321-64.1206 102.321-64.1206C105.224-56.8625 103.338-51.5034 102.844-50.2165C106.182-46.5496 108.292-41.9251 108.292-36.2075C108.292-16.0626 96.1688-11.7078 84.4801-10.3451C86.4258-8.78856 87.9823-5.5559 87.9823-0.602033C87.9823 6.40246 87.9823 12.12 87.9823 13.7655C87.9823 14.0949 87.9823 14.3645 88.147 14.6939C83.9568 15.8161 79.5262 16.3102 74.9309 16.3102C70.4595 16.2053 66.0288 15.6821 61.8386 14.589Z"/>
  </g>
  <g id="Semibold-L" transform="matrix(1 0 0 1 1969.16 1556)">
   <path class="monochrome-0 multicolor-0:black SFSymbolsPreview000000" d="M134.087-59.9238C130.672-67.8214 126.025-74.6928 119.937-80.6954C113.975-86.6574 107.063-91.3903 99.165-94.7197C91.2673-98.049 82.9616-99.82 74.0377-99.82C65.1139-99.82 56.8081-98.135 48.9105-94.7197C41.0129-91.3043 34.2275-86.6574 28.2248-80.6954C22.2629-74.7335 17.53-67.8214 14.2006-59.9238C10.8712-52.0262 9.10016-43.7205 9.10016-34.7966C9.10016-25.8727 10.7853-17.5263 14.2006-9.66937C17.616-1.77176 22.2629 5.09962 28.2248 11.1022C34.1868 17.0642 41.0988 21.7971 48.9965 25.1265C56.8941 28.4558 65.1998 30.2268 74.1237 30.2268C83.0475 30.2268 91.48 28.5418 99.251 25.1265C107.022 21.7111 113.934 17.0642 120.023 11.1022C125.984 5.14032 130.717-1.77176 134.087-9.66937C137.503-17.567 139.188-25.8727 139.188-34.7966C139.188-43.7205 137.458-52.1122 134.087-59.9238ZM60.6658 15.7952C60.8305 15.4658 60.8305 15.1744 60.8305 14.845C60.8305 13.5247 60.8305 10.2254 60.6658 5.68456C45.809 8.98388 42.6337-1.49681 42.6337-1.49681C40.1986-7.72801 36.6079-9.33698 36.6079-9.33698C31.6969-12.6363 36.978-12.6363 36.978-12.6363C42.383-12.2662 45.1882-7.06655 45.1882-7.06655C49.9345 1.14371 57.61-1.20545 60.7446-2.52571C61.2794-5.95169 62.5589-8.38681 64.1706-9.70707C52.2049-11.0273 39.7832-15.7329 39.7832-36.2409C39.7832-42.102 41.8889-46.8863 45.3529-50.6036C44.8181-51.9239 42.9178-57.3289 45.8877-64.8397C45.8877-64.8397 50.4286-66.3246 60.6206-59.4346C64.8701-60.5902 69.4516-61.2109 74.0332-61.249C78.574-61.249 83.1936-60.5902 87.4457-59.4346C97.683-66.3246 102.179-64.8397 102.179-64.8397C105.148-57.4149 103.207-51.9239 102.713-50.6036C106.139-46.8482 108.283-42.102 108.283-36.2409C108.283-15.6089 95.8614-11.154 83.8957-9.74777C85.8748-8.13615 87.4864-4.83683 87.4864 0.238816C87.4864 7.42018 87.4864 13.2813 87.4864 14.9717C87.4864 15.3011 87.4864 15.5924 87.6511 15.9218C83.3609 17.0774 78.8201 17.5715 74.1146 17.5715C69.4969 17.4448 64.956 16.91 60.6658 15.7952Z"/>
  </g>
  <g id="Medium-L" transform="matrix(1 0 0 1 1673.09 1556)">
   <path class="monochrome-0 multicolor-0:black SFSymbolsPreview000000" d="M132.869-59.6809C129.488-67.5027 124.883-74.3147 118.845-80.259C112.95-86.1539 106.088-90.8528 98.2672-94.1404C90.445-97.428 82.2229-99.1902 73.3913-99.1902C64.5598-99.1902 56.3376-97.5217 48.5158-94.1404C40.694-90.7591 33.9757-86.1539 28.0314-80.259C22.1365-74.3642 17.4376-67.5027 14.15-59.6809C10.8624-51.8591 9.10016-43.6369 9.10016-34.8054C9.10016-25.9738 10.7687-17.7022 14.15-9.92987C17.5313-2.10808 22.1365 4.70398 28.0314 10.6483C33.9262 16.5432 40.7877 21.2421 48.6095 24.5297C56.4313 27.8173 64.6535 29.5795 73.485 29.5795C82.3166 29.5795 90.6819 27.911 98.3602 24.5297C106.039 21.1484 112.9 16.5432 118.939 10.6483C124.833 4.75345 129.532-2.10808 132.869-9.92987C136.251-17.7517 137.919-25.9738 137.919-34.8054C137.919-43.6369 136.206-51.9528 132.869-59.6809ZM59.7765 16.7097C59.9412 16.3803 59.9412 16.0725 59.9412 15.7431C59.9412 14.3975 59.9412 11.0476 59.7765 6.42323C44.6514 9.7731 41.4168-0.892255 41.4168-0.892255C38.9399-7.24107 35.2821-8.86654 35.2821-8.86654C30.2789-12.2164 35.661-12.2164 35.661-12.2164C41.1584-11.8375 44.0142-6.55433 44.0142-6.55433C48.8527 1.79882 56.6623-0.584386 59.8475-1.92992C60.3911-5.42296 61.6871-7.89987 63.3405-9.24541C51.165-10.5909 38.5168-15.3801 38.5168-36.2661C38.5168-42.2361 40.6643-47.0962 44.1789-50.8971C43.6353-52.2426 41.702-57.74 44.7224-65.3849C44.7224-65.3849 49.3468-66.8951 59.7323-59.8875C64.0488-61.0684 68.7227-61.7056 73.3966-61.7272C78.021-61.7272 82.7164-61.0684 87.0609-59.8875C97.4902-66.8951 102.071-65.3849 102.071-65.3849C105.091-57.8337 103.108-52.2426 102.614-50.8971C106.107-47.0747 108.276-42.2361 108.276-36.2661C108.276-15.2648 95.6282-10.7341 83.4526-9.29487C85.4569-7.64147 87.1103-4.2916 87.1103 0.876383C87.1103 8.19187 87.1103 14.1618 87.1103 15.8862C87.1103 16.2156 87.1103 16.5235 87.275 16.8529C82.909 18.0337 78.2846 18.5278 73.4955 18.5278C68.7669 18.3847 64.1425 17.8411 59.7765 16.7097Z"/>
  </g>
  <g id="Regular-L" transform="matrix(1 0 0 1 1377.2 1556)">
   <path class="monochrome-0 multicolor-0:black SFSymbolsPreview000000" d="M131.281-59.364C127.944-67.0869 123.393-73.8215 117.421-79.6898C111.614-85.4972 104.818-90.1517 97.0955-93.3848C89.3726-96.6179 81.2594-98.3687 72.5483-98.3687C63.8373-98.3687 55.7241-96.7217 48.0012-93.3848C40.2783-90.0479 33.6474-85.4972 27.7791-79.6898C21.9717-73.8824 17.3172-67.0869 14.0841-59.364C10.851-51.6411 9.10016-43.5279 9.10016-34.8168C9.10016-26.1057 10.7472-17.9316 14.0841-10.2696C17.421-2.54676 21.9717 4.18793 27.7791 10.0562C33.5865 15.8636 40.3821 20.5181 48.105 23.7512C55.8279 26.9843 63.9411 28.7351 72.6521 28.7351C81.3632 28.7351 89.6411 27.0881 97.1993 23.7512C104.757 20.4143 111.553 15.8636 117.525 10.0562C123.332 4.24884 127.987-2.54676 131.281-10.2696C134.618-17.9925 136.265-26.1057 136.265-34.8168C136.265-43.5279 134.575-51.7449 131.281-59.364ZM58.6166 17.9026C58.7813 17.5732 58.7813 17.2438 58.7813 16.9144C58.7813 15.5359 58.7813 12.1201 58.6166 7.38671C43.1417 10.8025 39.8297-0.103707 39.8297-0.103707C37.2983-6.60593 33.5531-8.25293 33.5531-8.25293C28.4293-11.6687 33.9434-11.6687 33.9434-11.6687C39.5612-11.2784 42.4829-5.88622 42.4829-5.88622C47.4419 2.6533 55.4264 0.225693 58.6775-1.15281C59.2325-4.73332 60.5501-7.26473 62.258-8.64323C49.8086-10.0217 36.8651-14.9198 36.8651-36.2991C36.8651-42.411 39.0671-47.37 42.6476-51.2799C42.0926-52.6584 40.1162-58.2763 43.2026-66.0961C43.2026-66.0961 47.936-67.6393 58.5737-60.4783C62.9777-61.6921 67.772-62.3509 72.5664-62.3509C77.2998-62.3509 82.0941-61.6921 86.559-60.4783C97.2396-67.6393 101.93-66.0961 101.93-66.0961C105.016-58.3801 102.979-52.6584 102.485-51.2799C106.066-47.37 108.268-42.411 108.268-36.2991C108.268-14.816 95.3241-10.1864 82.8747-8.70414C84.912-6.99623 86.6199-3.58042 86.6199 1.70799C86.6199 9.19841 86.6199 15.3103 86.6199 17.0791C86.6199 17.4085 86.6199 17.7379 86.7846 18.0673C82.3197 19.2811 77.5863 19.7752 72.6882 19.7752C67.8149 19.6105 63.0815 19.0555 58.6166 17.9026Z"/>
  </g>
  <g id="Light-L" transform="matrix(1 0 0 1 1081.39 1556)">
   <path class="monochrome-0 multicolor-0:black SFSymbolsPreview000000" d="M129.558-59.0698C126.305-66.6666 121.796-73.2752 115.908-79.1014C110.185-84.8248 103.473-89.3952 95.8766-92.5863C88.2798-95.7773 80.2507-97.4861 71.6657-97.4861C63.0807-97.4861 55.0516-95.8391 47.4548-92.5863C39.858-89.3334 33.3111-84.8248 27.4849-79.1014C21.7615-73.3781 17.1911-66.6666 14-59.0698C10.809-51.473 9.10016-43.4438 9.10016-34.8588C9.10016-26.2738 10.7472-18.1418 14-10.6479C17.2529-3.0511 21.7615 3.5575 27.4849 9.38376C33.2082 15.1071 39.9197 19.6775 47.5165 22.8686C55.1133 26.0597 63.1425 27.7684 71.7275 27.7684C80.3125 27.7684 88.5063 26.1214 95.9384 22.8686C103.37 19.6158 110.082 15.1071 115.97 9.38376C121.693 3.66043 126.264-3.0511 129.558-10.6479C132.811-18.2447 134.458-26.2738 134.458-34.8588C134.458-43.4438 132.852-51.5347 129.558-59.0698ZM57.4398 19.1215C57.6045 18.7921 57.6045 18.4627 57.6045 18.1333C57.6045 16.7127 57.6045 13.2129 57.4398 8.39541C41.6286 11.8953 38.1905 0.736872 38.1905 0.736872C35.6171-5.93346 31.7878-7.58046 31.7878-7.58046C26.538-11.0803 32.2201-11.0803 32.2201-11.0803C37.964-10.648 40.9698-5.17173 40.9698-5.17173C46.0549 3.57794 54.2075 1.06627 57.5427-0.354261C58.1397-4.01883 59.4573-6.59226 61.2073-8.0128C48.4636-9.43333 35.2259-14.4155 35.2259-36.3411C35.2259-42.5791 37.4699-47.6642 41.1345-51.6582C40.5375-53.0787 38.5611-58.8226 41.7315-66.8106C41.7315-66.8106 46.549-68.3958 57.4809-61.0667C61.969-62.3225 66.8894-62.9813 71.8098-62.9813C76.6273-62.9813 81.5477-62.3225 86.1387-61.0667C97.0294-68.3958 101.888-66.8106 101.888-66.8106C105.058-58.8844 102.979-53.0787 102.485-51.6582C106.15-47.6642 108.394-42.5791 108.394-36.3411C108.394-14.3537 95.156-9.59803 82.4123-8.11573C84.4917-6.3658 86.2416-2.86593 86.2416 2.54857C86.2416 10.2071 86.2416 16.4451 86.2416 18.298C86.2416 18.6274 86.2416 18.9568 86.4063 19.2862C81.8153 20.542 76.9978 21.0361 72.0157 21.0361C66.8482 20.8714 62.0308 20.2744 57.4398 19.1215Z"/>
  </g>
  <g id="Thin-L" transform="matrix(1 0 0 1 785.878 1556)">
   <path class="monochrome-0 multicolor-0:black SFSymbolsPreview000000" d="M127.279-58.6807C124.137-66.1107 119.684-72.5525 113.907-78.3232C108.295-83.9354 101.695-88.3946 94.2646-91.5301C86.8346-94.6656 78.9166-96.3188 70.4984-96.3188C62.0802-96.3188 54.1622-94.6718 46.7322-91.5301C39.3021-88.3885 32.8665-83.9354 27.0958-78.3232C21.4836-72.7111 17.0244-66.1107 13.8889-58.6807C10.7534-51.2506 9.10016-43.3327 9.10016-34.9144C9.10016-26.4962 10.7472-18.4197 13.8889-11.1482C17.0305-3.71814 21.4836 2.72369 27.0958 8.49437C32.7079 14.1065 39.3083 18.5658 46.7383 21.7013C54.1684 24.8368 62.0863 26.4899 70.5046 26.4899C78.9228 26.4899 87.0055 24.8429 94.2708 21.7013C101.536 18.5596 108.137 14.1065 113.914 8.49437C119.526 2.88222 123.985-3.71814 127.279-11.1482C130.421-18.5782 132.068-26.4962 132.068-34.9144C132.068-43.3327 130.573-51.2568 127.279-58.6807ZM55.8834 20.7335C56.0481 20.4041 56.0481 20.0747 56.0481 19.7453C56.0481 18.2692 56.0481 14.6581 55.8834 9.72949C39.6275 13.3405 36.0226 1.84861 36.0226 1.84861C33.3936-5.04407 29.4532-6.69107 29.4532-6.69107C24.0366-10.3021 29.9411-10.3021 29.9411-10.3021C35.8518-9.81419 38.9687-4.22675 38.9687-4.22675C44.2206 4.80085 52.5955 2.17801 56.0419 0.701886C56.6945-3.07385 58.0121-5.70287 59.8176-7.17899C46.6849-8.65512 33.058-13.7485 33.058-36.3967C33.058-42.8015 35.3577-48.0533 39.1334-52.1585C38.4808-53.6346 36.5044-59.5453 39.786-67.7555C39.786-67.7555 44.7147-69.3964 56.0357-61.8449C60.6349-63.1563 65.7221-63.8151 70.8093-63.8151C75.7379-63.8151 80.8251-63.1563 85.5828-61.8449C96.7515-69.3964 101.833-67.7555 101.833-67.7555C105.114-59.5514 102.98-53.6346 102.485-52.1585C106.261-48.0533 108.561-42.8015 108.561-36.3967C108.561-13.7423 94.9336-8.81982 81.8009-7.33752C83.9358-5.53199 85.7413-1.92095 85.7413 3.66031C85.7413 11.5412 85.7413 17.9459 85.7413 19.91C85.7413 20.2394 85.7413 20.5688 85.906 20.8982C81.1483 22.2096 76.2196 22.7037 71.1263 22.7037C65.5698 22.539 60.6411 21.8864 55.8834 20.7335Z"/>
  </g>
  <g id="Ultralight-L" transform="matrix(1 0 0 1 489.78 1556)">
   <path class="monochrome-0 multicolor-0:black SFSymbolsPreview000000" d="M126.111-58.4814C123.027-65.826 118.602-72.1824 112.882-77.9246C107.327-83.4798 100.783-87.8822 93.4389-90.9892C86.0943-94.0962 78.2333-95.7209 69.9004-95.7209C61.5676-95.7209 53.7066-94.0739 46.362-90.9892C39.0173-87.9044 32.6386-83.4798 26.8964-77.9246C21.3412-72.3694 16.9389-65.826 13.8319-58.4814C10.7249-51.1367 9.10016-43.2757 9.10016-34.9429C9.10016-26.6101 10.7472-18.5621 13.8319-11.4044C16.9166-4.0598 21.3412 2.29663 26.8964 8.03883C32.4516 13.5941 38.9951 17.9964 46.3397 21.1034C53.6843 24.2104 61.5453 25.8351 69.8781 25.8351C78.211 25.8351 86.2367 24.1881 93.4166 21.1034C100.596 18.0187 107.14 13.5941 112.86 8.03883C118.415 2.48362 122.817-4.0598 126.111-11.4044C129.196-18.749 130.843-26.6101 130.843-34.9429C130.843-43.2757 129.405-51.1144 126.111-58.4814ZM55.0861 21.5592C55.2508 21.2298 55.2508 20.9004 55.2508 20.571C55.2508 19.0664 55.2508 15.3984 55.0861 10.4128C38.6025 14.0808 34.9122 2.41803 34.9122 2.41803C32.2547-4.58853 28.2573-6.23553 28.2573-6.23553C22.7553-9.90352 28.7737-9.90352 28.7737-9.90352C34.7698-9.38713 37.9437-3.74274 37.9437-3.74274C43.2809 5.42721 51.7698 2.74743 55.2731 1.24284C55.9542-2.58984 57.2718-5.24733 59.1058-6.75193C45.7737-8.25652 31.9476-13.4068 31.9476-36.4252C31.9476-42.9154 34.2757-48.2526 38.1084-52.4147C37.4273-53.9193 35.4509-59.9154 38.7895-68.2396C38.7895-68.2396 43.775-69.9088 55.2954-62.2435C59.9516-63.5834 65.1241-64.2422 70.2967-64.2422C75.2823-64.2422 80.4549-63.5834 85.298-62.2435C96.6091-69.9088 101.804-68.2396 101.804-68.2396C105.142-59.8931 102.979-53.9193 102.485-52.4147C106.318-48.2526 108.646-42.9154 108.646-36.4252C108.646-13.4291 94.8197-8.42122 81.4877-6.93892C83.651-5.10493 85.485-1.43694 85.485 4.22973C85.485 12.2245 85.485 18.7147 85.485 20.7357C85.485 21.0651 85.485 21.3945 85.6497 21.7239C80.8066 23.0637 75.821 23.5578 70.6707 23.5578C64.9149 23.3931 59.9293 22.7121 55.0861 21.5592Z"/>
  </g>
  <g id="Black-M" transform="matrix(1 0 0 1 2870.9 1126)">
   <path class="monochrome-0 multicolor-0:black SFSymbolsPreview000000" d="M111.8-55.553C109.002-62.0305 105.194-67.6254 100.238-72.5705C95.2924-77.5161 89.6981-81.3347 83.2206-84.1212C76.7431-86.9077 69.8942-88.3119 62.5341-88.3119C55.1741-88.3119 48.3252-86.919 41.8477-84.1212C35.3702-81.3234 29.7866-77.5161 24.8416-72.5705C19.8959-67.6248 16.0773-62.0305 13.2908-55.553C10.5043-49.0756 9.10016-42.2266 9.10016-34.8666C9.10016-27.5066 10.4931-20.6582 13.2908-14.1801C16.0886-7.70265 19.8959-2.10772 24.8416 2.83731C29.7872 7.78295 35.3815 11.6015 41.859 14.388C48.3365 17.1745 55.1854 18.5787 62.5454 18.5787C69.9054 18.5787 76.7651 17.1858 83.2319 14.388C89.6987 11.5902 95.293 7.78295 100.249 2.83731C105.195-2.10834 109.014-7.70265 111.8-14.1801C114.597-20.6576 115.99-27.5066 115.99-34.8666C115.99-42.2266 114.585-49.0869 111.8-55.553ZM53.3616-0.13421C53.4892-0.38941 53.4892-0.527677 53.4892-0.782877C53.4892-1.68612 53.4892-4.00301 53.3616-7.10683C43.1582-4.78994 40.9695-12.0171 40.9695-12.0171C39.29-16.2788 36.8348-17.4378 36.8348-17.4378C33.4764-19.7547 37.0894-19.7547 37.0894-19.7547C40.8306-19.5002 42.7647-15.8859 42.7647-15.8859C45.9955-10.2106 51.2886-11.8789 53.4779-12.7821C53.8601-15.1097 54.7639-16.7892 55.8054-17.6924C47.5474-18.5957 39.0235-21.8271 39.0235-35.898C39.0235-39.9051 40.4478-43.2528 42.8923-45.7187C42.5101-46.6219 41.2128-50.3631 43.2745-55.5286C43.2745-55.5286 46.3783-56.5594 53.3497-51.7874C56.3152-52.563 59.4184-52.9565 62.5216-53.0734C65.6254-53.0734 68.8456-52.563 71.6936-51.7874C78.6768-56.5594 81.7687-55.5286 81.7687-55.5286C83.8304-50.3744 82.5337-46.6219 82.1509-45.7187C84.4785-43.1359 86.0197-39.9051 86.0197-35.898C86.0197-21.6989 77.4958-18.6063 69.2378-17.6918C70.6514-16.6503 71.6929-14.3334 71.6929-10.8474C71.6929-5.93709 71.6929-1.93003 71.6929-0.77221C71.6929-0.51701 71.6929-0.378744 71.8205-0.123544C68.8556 0.6521 65.7518 1.0349 62.5204 1.0349C59.4303 1.02423 56.3265 0.642056 53.3616-0.13421Z"/>
  </g>
  <g id="Heavy-M" transform="matrix(1 0 0 1 2575.05 1126)">
   <path class="monochrome-0 multicolor-0:black SFSymbolsPreview000000" d="M110.134-55.2101C107.375-61.5878 103.628-67.1107 98.7384-71.9673C93.8868-76.8189 88.3589-80.5986 81.9811-83.3243C75.6033-86.05 68.876-87.4485 61.6433-87.4485C54.4105-87.4485 47.6832-86.0832 41.3054-83.3243C34.9276-80.5654 29.438-76.8189 24.5814-71.9673C19.7298-67.1157 15.9501-61.5878 13.2244-55.2101C10.4988-48.8323 9.10016-42.1049 9.10016-34.8722C9.10016-27.6395 10.4655-20.9071 13.2244-14.5344C15.9834-8.15657 19.7298-2.63372 24.5814 2.22289C29.433 7.07448 34.9609 10.8542 41.3387 13.5799C47.7165 16.3055 54.4438 17.7041 61.6765 17.7041C68.9092 17.7041 75.6748 16.3388 82.0144 13.5799C88.3539 10.821 93.8818 7.07448 98.7716 2.22289C103.623-2.62871 107.403-8.15657 110.134-14.5344C112.893-20.9121 114.258-27.6395 114.258-34.8722C114.258-42.1049 112.864-48.8655 110.134-55.2101ZM52.1277 1.13293C52.2553 0.877728 52.2553 0.711865 52.2553 0.456665C52.2553-0.479805 52.2553-2.86315 52.1277-6.08861C41.5481-3.70527 39.2874-11.187 39.2874-11.187C37.547-15.6092 34.9978-16.7958 34.9978-16.7958C31.5122-19.1792 35.258-19.1792 35.258-19.1792C39.1265-18.919 41.127-15.1831 41.127-15.1831C44.4851-9.31408 49.9663-11.0212 52.2221-11.9576C52.6099-14.3792 53.5413-16.1196 54.6437-17.056C46.0979-17.9925 37.2586-21.3456 37.2586-35.9313C37.2586-40.0932 38.7437-43.5406 41.2546-46.1281C40.8668-47.0646 39.5143-50.933 41.6425-56.2866C41.6425-56.2866 44.8679-57.3507 52.0995-52.4182C55.1591-53.227 58.3896-53.6481 61.62-53.7374C64.8455-53.7374 68.1653-53.227 71.1406-52.4182C78.4004-57.3507 81.5976-56.2866 81.5976-56.2866C83.7257-50.9663 82.3682-47.0646 81.9854-46.1281C84.407-43.4513 85.9815-40.0932 85.9815-35.9313C85.9815-21.223 77.1422-18.0308 68.5964-17.061C70.0433-15.9587 71.1456-13.5754 71.1456-9.96209C71.1456-4.86369 71.1456-0.70175 71.1456 0.494928C71.1456 0.750128 71.1456 0.915991 71.2732 1.17119C68.2086 1.98006 64.9831 2.36286 61.63 2.36286C58.4178 2.3246 55.1923 1.93679 52.1277 1.13293Z"/>
  </g>
  <g id="Bold-M" transform="matrix(1 0 0 1 2279.31 1126)">
   <path class="monochrome-0 multicolor-0:black SFSymbolsPreview000000" d="M108.27-54.8264C105.554-61.0927 101.876-66.5349 97.0607-71.2926C92.3143-76.039 86.8608-79.7752 80.5945-82.4329C74.3282-85.0905 67.737-86.4828 60.6466-86.4828C53.5563-86.4828 46.965-85.1483 40.6988-82.4329C34.4325-79.7174 29.0481-76.039 24.2904-71.2926C19.544-66.5462 15.8077-61.0927 13.1501-54.8264C10.4925-48.5601 9.10016-41.9689 9.10016-34.8785C9.10016-27.7882 10.4347-21.1856 13.1501-14.9306C15.8656-8.66434 19.544-3.22212 24.2904 1.53557C29.0368 6.28196 34.4903 10.0182 40.7566 12.6758C47.0229 15.3335 53.6141 16.7258 60.7045 16.7258C67.7948 16.7258 74.4552 15.3913 80.6524 12.6758C86.8495 9.96039 92.303 6.28196 97.1185 1.53557C101.864-3.21082 105.601-8.66434 108.27-14.9306C110.985-21.1969 112.32-27.7882 112.32-34.8785C112.32-41.9689 110.939-48.6179 108.27-54.8264ZM50.7474 2.5504C50.875 2.2952 50.875 2.09847 50.875 1.84327C50.875 0.869632 50.875-1.58805 50.7474-4.94959C39.747-2.49191 37.4056-10.2584 37.4056-10.2584C35.5972-14.8601 32.9428-16.0776 32.9428-16.0776C29.3148-18.5353 33.2093-18.5353 33.2093-18.5353C37.2202-18.2688 39.295-14.3969 39.295-14.3969C42.7955-8.31114 48.4871-10.0617 50.8172-11.0353C51.2113-13.5621 52.1736-15.3705 53.344-16.3441C44.4763-17.3178 35.2842-20.8069 35.2842-35.9684C35.2842-40.3036 36.8374-43.8625 39.4226-46.5861C39.0285-47.5597 37.6143-51.5706 39.8168-57.1346C39.8168-57.1346 43.1783-58.2358 50.7009-53.1237C53.8657-53.9698 57.2386-54.4217 60.6114-54.4802C63.973-54.4802 67.4043-53.9698 70.5219-53.1237C78.0911-58.2358 81.4061-57.1346 81.4061-57.1346C83.6086-51.6284 82.183-47.5597 81.8002-46.5861C84.327-43.8041 85.9386-40.3036 85.9386-35.9684C85.9386-20.6906 76.7466-17.3869 67.8788-16.3555C69.3629-15.1851 70.5332-12.7274 70.5332-8.97175C70.5332-3.66292 70.5332 0.672259 70.5332 1.9124C70.5332 2.1676 70.5332 2.36434 70.6608 2.61954C67.4847 3.46558 64.1232 3.84838 60.634 3.84838C57.2851 3.77924 53.9235 3.38514 50.7474 2.5504Z"/>
  </g>
  <g id="Semibold-M" transform="matrix(1 0 0 1 1983.26 1126)">
   <path class="monochrome-0 multicolor-0:black SFSymbolsPreview000000" d="M106.985-54.5619C104.3-60.7513 100.668-66.1379 95.9041-70.8274C91.2303-75.5013 85.828-79.2076 79.6386-81.8183C73.4492-84.429 66.9518-85.817 59.9596-85.817C52.9674-85.817 46.4699-84.5038 40.2805-81.8183C34.0911-79.1328 28.7792-75.5013 24.0897-70.8274C19.4159-66.1536 15.7096-60.7513 13.0989-54.5619C10.4881-48.3725 9.10016-41.875 9.10016-34.8828C9.10016-27.8907 10.4134-21.3776 13.0989-15.2038C15.7844-9.01439 19.4159-3.62777 24.0897 1.06174C28.7636 5.7356 34.1659 9.44189 40.3553 12.0526C46.5447 14.6633 53.0421 16.0513 60.0343 16.0513C67.0265 16.0513 73.6144 14.7381 79.7134 12.0526C85.8124 9.36712 91.2146 5.7356 95.9789 1.06174C100.653-3.61212 104.359-9.01439 106.985-15.2038C109.671-21.3932 110.984-27.8907 110.984-34.8828C110.984-41.875 109.612-48.4473 106.985-54.5619ZM49.7959 3.5276C49.9235 3.2724 49.9235 3.05439 49.9235 2.79919C49.9235 1.79993 49.9235-0.709001 49.7959-4.16436C38.5053-1.65543 36.1083-9.61824 36.1083-9.61824C34.253-14.3437 31.5261-15.5825 31.5261-15.5825C27.7999-18.0915 31.7969-18.0915 31.7969-18.0915C35.9059-17.8206 38.0321-13.8548 38.0321-13.8548C41.6307-7.61972 47.4674-9.40023 49.8487-10.3995C50.2471-12.9988 51.2308-14.8541 52.448-15.8534C43.3584-16.8526 33.9231-20.4356 33.9231-35.9941C33.9231-40.4487 35.5231-44.0845 38.1597-46.9018C37.7612-47.9011 36.3044-52.0101 38.5581-57.7192C38.5581-57.7192 42.0135-58.846 49.7367-53.6102C52.9741-54.4818 56.4451-54.9551 59.9161-54.9922C63.3714-54.9922 66.8796-54.4818 70.0954-53.6102C77.8778-58.846 81.2741-57.7192 81.2741-57.7192C83.5278-52.0849 82.0553-47.9011 81.6725-46.9018C84.2718-44.0473 85.9091-40.4487 85.9091-35.9941C85.9091-20.3236 76.4738-16.9431 67.3841-15.869C68.8938-14.6517 70.1111-12.1428 70.1111-8.28901C70.1111-2.83513 70.1111 1.61949 70.1111 2.8896C70.1111 3.1448 70.1111 3.36282 70.2387 3.61802C66.9857 4.48968 63.5303 4.87248 59.9474 4.87248C56.5042 4.78207 53.0488 4.38362 49.7959 3.5276Z"/>
  </g>
  <g id="Medium-M" transform="matrix(1 0 0 1 1687.06 1126)">
   <path class="monochrome-0 multicolor-0:black SFSymbolsPreview000000" d="M106.011-54.3613C103.349-60.4925 99.7525-65.8369 95.0271-70.4747C90.4082-75.0936 85.0448-78.7772 78.9137-81.3523C72.7826-83.9275 66.3563-85.3121 59.4385-85.3121C52.5207-85.3121 46.0944-84.0151 39.9633-81.3523C33.8322-78.6896 28.5753-75.0936 23.9375-70.4747C19.3187-65.8559 15.6351-60.4925 13.0599-54.3613C10.4848-48.2302 9.10016-41.8039 9.10016-34.8861C9.10016-27.9684 10.3972-21.5231 13.0599-15.4109C15.7227-9.27982 19.3187-3.93534 23.9375 0.702462C28.5564 5.32132 33.9198 9.00489 40.0509 11.58C46.182 14.1552 52.6083 15.5399 59.5261 15.5399C66.4439 15.5399 72.9768 14.2428 79.0013 11.58C85.0259 8.91728 90.3893 5.32132 95.1147 0.702462C99.7336-3.9164 103.417-9.27982 106.011-15.4109C108.674-21.5421 109.971-27.9684 109.971-34.8861C109.971-41.8039 108.606-48.3178 106.011-54.3613ZM49.0742 4.26856C49.2018 4.01336 49.2018 3.77921 49.2018 3.52401C49.2018 2.50531 49.2018-0.0424717 49.0742-3.56896C37.5637-1.02118 35.1246-9.13284 35.1246-9.13284C33.2337-13.9522 30.4518-15.2071 30.4518-15.2071C26.6512-17.7549 30.7259-17.7549 30.7259-17.7549C34.9094-17.4808 37.0743-13.4439 37.0743-13.4439C40.7474-7.09545 46.6941-8.89868 49.1142-9.91738C49.516-12.5717 50.5157-14.4626 51.7686-15.4813C42.5106-16.4999 32.8909-20.154 32.8909-36.0135C32.8909-40.5587 34.5266-44.2528 37.2019-47.1412C36.8002-48.1599 35.3111-52.3434 37.6037-58.1624C37.6037-58.1624 41.1302-59.3087 49.0056-53.979C52.2979-54.8701 55.8433-55.3595 59.3888-55.3805C62.9153-55.3805 66.4817-54.8701 69.772-53.979C77.716-59.3087 81.1739-58.1624 81.1739-58.1624C83.4664-52.431 81.9584-48.1599 81.5756-47.1412C84.2299-44.2317 85.8866-40.5587 85.8866-36.0135C85.8866-20.0454 76.2669-16.6065 67.009-15.5002C68.5381-14.2473 69.7909-11.6996 69.7909-7.77133C69.7909-2.20746 69.7909 2.33772 69.7909 3.63056C69.7909 3.88576 69.7909 4.11991 69.9185 4.37511C66.6072 5.2662 63.0807 5.649 59.4267 5.649C55.912 5.54245 52.3855 5.14071 49.0742 4.26856Z"/>
  </g>
  <g id="Regular-M" transform="matrix(1 0 0 1 1391.01 1126)">
   <path class="monochrome-0 multicolor-0:black SFSymbolsPreview000000" d="M104.741-54.0998C102.108-60.1548 98.558-65.4443 93.8833-70.0147C89.3362-74.5618 84.0234-78.2158 77.9683-80.7445C71.9133-83.2733 65.5797-84.6537 58.759-84.6537C51.9383-84.6537 45.6048-83.3777 39.5497-80.7445C33.4946-78.1114 28.3095-74.5618 23.7391-70.0147C19.192-65.4676 15.5381-60.1548 13.0093-54.0998C10.4805-48.0447 9.10016-41.7111 9.10016-34.8904C9.10016-28.0697 10.3762-21.713 13.0093-15.6811C15.6424-9.62602 19.192-4.33653 23.7391 0.233838C28.2862 4.78097 33.599 8.4349 39.6541 10.9637C45.7092 13.4924 52.0427 14.8728 58.8634 14.8728C65.6841 14.8728 72.1452 13.5968 78.0727 10.9637C84.0002 8.33053 89.3129 4.78097 93.9877 0.233838C98.5348-4.31329 102.189-9.62602 104.741-15.6811C107.374-21.7362 108.65-28.0697 108.65-34.8904C108.65-41.7111 107.293-48.149 104.741-54.0998ZM48.1332 5.23502C48.2608 4.97982 48.2608 4.72462 48.2608 4.46942C48.2608 3.42538 48.2608 0.826914 48.1332-2.79236C36.3357-0.193886 33.8416-8.4997 33.8416-8.4997C31.9044-13.4414 29.0507-14.7174 29.0507-14.7174C25.153-17.3159 29.3291-17.3159 29.3291-17.3159C33.6096-17.0375 35.8253-12.9078 35.8253-12.9078C39.5954-6.41163 45.6855-8.2445 48.1564-9.28853C48.5625-12.0146 49.5833-13.9518 50.8825-14.9959C41.405-16.0399 31.5448-19.7868 31.5448-36.0388C31.5448-40.7021 33.2268-44.4722 35.9529-47.4535C35.5469-48.4976 34.0157-52.7781 36.3589-58.7406C36.3589-58.7406 39.9782-59.9122 48.0521-54.4601C51.4161-55.3765 55.0586-55.8869 58.7011-55.8869C62.3204-55.8869 65.9629-55.3765 69.3502-54.4601C77.5052-59.9122 81.0433-58.7406 81.0433-58.7406C83.3866-52.8824 81.8322-48.4976 81.4494-47.4535C84.1754-44.4722 85.8575-40.7021 85.8575-36.0388C85.8575-19.6824 75.9972-16.1675 66.5198-15.0191C68.0742-13.7199 69.3734-11.1214 69.3734-7.0961C69.3734-1.38876 69.3734 3.27455 69.3734 4.59702C69.3734 4.85222 69.3734 5.10742 69.501 5.36262C66.1137 6.27905 62.4945 6.66185 58.7476 6.66185C55.1398 6.53425 51.5205 6.12822 48.1332 5.23502Z"/>
  </g>
  <g id="Light-M" transform="matrix(1 0 0 1 1095.11 1126)">
   <path class="monochrome-0 multicolor-0:black SFSymbolsPreview000000" d="M103.196-53.836C100.638-59.778 97.1262-64.9545 92.5268-69.4872C88.055-73.9589 82.8177-77.5375 76.8756-80.0286C70.9336-82.5197 64.6754-83.8624 57.9677-83.8624C51.2601-83.8624 45.0019-82.5864 39.0599-80.0286C33.1178-77.4708 28.0081-73.9589 23.4754-69.4872C19.0036-65.0154 15.425-59.778 12.934-53.836C10.4429-47.8939 9.10016-41.6358 9.10016-34.9281C9.10016-28.2205 10.3762-21.9014 12.934-16.0202C15.4917-10.0782 19.0036-4.90174 23.4754-0.369061C27.9471 4.10271 33.1845 7.68127 39.1266 10.1724C45.0686 12.6634 51.3268 14.0061 58.0344 14.0061C64.7421 14.0061 71.1278 12.7301 76.9423 10.1724C82.7567 7.61459 87.9941 4.10271 92.5935-0.369061C97.0652-4.84083 100.644-10.0782 103.196-16.0202C105.754-21.9623 107.03-28.2205 107.03-34.9281C107.03-41.6358 105.748-47.9606 103.196-53.836ZM47.0781 6.32777C47.2057 6.07257 47.2057 5.81737 47.2057 5.56217C47.2057 4.48046 47.2057 1.80662 47.0781-1.88801C34.9792 0.785824 32.372-7.74607 32.372-7.74607C30.3971-12.8385 27.4681-14.1145 27.4681-14.1145C23.4573-16.7884 27.7842-16.7884 27.7842-16.7884C32.1778-16.4723 34.4688-12.2672 34.4688-12.2672C38.3519-5.58264 44.5928-7.49087 47.139-8.57259C47.5828-11.374 48.6036-13.3489 49.9405-14.4307C40.1993-15.5124 30.0752-19.3346 30.0752-36.0765C30.0752-40.8529 31.795-44.736 34.5964-47.7926C34.1527-48.8744 32.6215-53.2679 35.0401-59.3812C35.0401-59.3812 38.7347-60.5905 47.0724-54.9876C50.5118-55.9417 54.2673-56.4521 58.0229-56.4521C61.7175-56.4521 65.4731-55.9417 68.9734-54.9876C77.3168-60.5905 81.0057-59.3812 81.0057-59.3812C83.4243-53.3346 81.8322-48.8744 81.4494-47.7926C84.2508-44.736 85.9705-40.8529 85.9705-36.0765C85.9705-19.2679 75.8465-15.64 66.1053-14.4916C67.6974-13.1547 69.0343-10.4808 69.0343-6.34247C69.0343-0.484408 69.0343 4.29194 69.0343 5.68977C69.0343 5.94497 69.0343 6.20017 69.1619 6.45537C65.6616 7.40949 61.967 7.79229 58.1447 7.79229C54.2731 7.66469 50.5785 7.22097 47.0781 6.32777Z"/>
  </g>
  <g id="Thin-M" transform="matrix(1 0 0 1 799.469 1126)">
   <path class="monochrome-0 multicolor-0:black SFSymbolsPreview000000" d="M101.153-53.4871C98.6944-59.2797 95.2323-64.3066 90.7327-68.7895C86.3606-73.1616 81.2229-76.6405 75.4303-79.0817C69.6378-81.5229 63.4793-82.8158 56.9211-82.8158C50.363-82.8158 44.2045-81.5398 38.412-79.0817C32.6194-76.6236 27.6093-73.1616 23.1265-68.7895C18.7544-64.4174 15.2755-59.2797 12.8342-53.4871C10.393-47.6946 9.10016-41.5361 9.10016-34.978C9.10016-28.4198 10.3761-22.1506 12.8342-16.4688C15.2923-10.6762 18.7544-5.64929 23.1265-1.16644C27.4986 3.20565 32.6363 6.68455 38.4288 9.12579C44.2214 11.567 50.3798 12.8599 56.938 12.8599C63.4961 12.8599 69.7822 11.5839 75.4472 9.12579C81.1121 6.6677 86.2498 3.20565 90.7495-1.16644C95.1216-5.53854 98.6005-10.6762 101.153-16.4688C103.611-22.2613 104.887-28.4198 104.887-34.978C104.887-41.5361 103.705-47.7114 101.153-53.4871ZM45.6827 7.77303C45.8103 7.51783 45.8103 7.26263 45.8103 7.00743C45.8103 5.87588 45.8103 3.10237 45.6827-0.691935C33.1851 2.08157 30.4284-6.74935 30.4284-6.74935C28.4036-12.0412 25.3749-13.3172 25.3749-13.3172C21.2147-16.0907 25.7409-16.0907 25.7409-16.0907C30.2839-15.7247 32.6747-11.42 32.6747-11.42C36.7073-4.48624 43.1475-6.49415 45.7934-7.6257C46.287-10.5268 47.3078-12.5516 48.6945-13.6831C38.6045-14.8147 28.1316-18.7366 28.1316-36.1264C28.1316-41.0522 29.9011-45.0849 32.8023-48.2412C32.3087-49.3727 30.7775-53.9158 33.2958-60.2284C33.2958-60.2284 37.0901-61.4875 45.7766-55.6853C49.3157-56.6893 53.2207-57.1997 57.1258-57.1997C60.9201-57.1997 64.8252-56.6893 68.475-55.6853C77.0676-61.4875 80.9558-60.2284 80.9558-60.2284C83.4741-53.9326 81.8321-49.3727 81.4493-48.2412C84.3505-45.0849 86.12-41.0522 86.12-36.1264C86.12-18.7197 75.6471-14.9423 65.5571-13.7939C67.199-12.4071 68.5858-9.6336 68.5858-5.34575C68.5858 0.711665 68.5858 5.63752 68.5858 7.13503C68.5858 7.39023 68.5858 7.64543 68.7134 7.90063C65.0635 8.90458 61.2692 9.28738 57.3473 9.28738C53.1268 9.15978 49.3325 8.66623 45.6827 7.77303Z"/>
  </g>
  <g id="Ultralight-M" transform="matrix(1 0 0 1 503.307 1126)">
   <path class="monochrome-0 multicolor-0:black SFSymbolsPreview000000" d="M100.106-53.3084C97.6989-59.0244 94.2623-63.9748 89.8137-68.4321C85.4926-72.7531 80.406-76.181 74.69-78.5967C68.9741-81.0124 62.8666-82.2797 56.3851-82.2797C49.9035-82.2797 43.7961-81.0037 38.0801-78.5967C32.3641-76.1897 27.4051-72.7531 22.9478-68.4321C18.6267-64.1111 15.1989-59.0244 12.7832-53.3084C10.3674-47.5925 9.10016-41.485 9.10016-35.0035C9.10016-28.5219 10.3761-22.2782 12.7832-16.6985C15.1902-10.9825 18.6267-6.03218 22.9478-1.57486C27.2688 2.74618 32.3555 6.17403 38.0714 8.58975C43.7874 11.0055 49.8948 12.2728 56.3764 12.2728C62.858 12.2728 69.093 10.9968 74.6814 8.58975C80.2697 6.18271 85.3564 2.74618 89.805-1.57486C94.1261-5.8959 97.5539-10.9825 100.106-16.6985C102.513-22.4145 103.789-28.5219 103.789-35.0035C103.789-41.485 102.658-47.5838 100.106-53.3084ZM44.9679 8.51328C45.0955 8.25808 45.0955 8.00288 45.0955 7.74768C45.0955 6.5906 45.0955 3.76604 44.9679-0.0793128C32.2661 2.74524 29.4329-6.23883 29.4329-6.23883C27.3826-11.6327 24.3028-12.9087 24.3028-12.9087C20.066-15.7333 24.6943-15.7333 24.6943-15.7333C29.3139-15.3418 31.7557-10.9861 31.7557-10.9861C35.8649-3.92467 42.4072-5.98363 45.1042-7.14071C45.6233-10.0929 46.6441-12.1431 48.0564-13.3002C37.7876-14.4573 27.1361-18.4303 27.1361-36.1519C27.1361-41.1543 28.9311-45.2636 31.8833-48.4709C31.3642-49.628 29.833-54.2476 32.4024-60.6623C32.4024-60.6623 36.2477-61.947 45.1129-56.0427C48.703-57.0722 52.6847-57.5826 56.6663-57.5826C60.5117-57.5826 64.4933-57.0722 68.2197-56.0427C76.9399-61.947 80.9302-60.6623 80.9302-60.6623C83.4996-54.2389 81.8321-49.628 81.4493-48.4709C84.4015-45.2636 86.1966-41.1543 86.1966-36.1519C86.1966-18.4389 75.545-14.5849 65.2763-13.4365C66.9437-12.0242 68.356-9.19966 68.356-4.83523C68.356 1.32429 68.356 6.32672 68.356 7.87528C68.356 8.13048 68.356 8.38568 68.4836 8.64088C64.7572 9.67036 60.9118 10.0532 56.9389 10.0532C52.5397 9.92556 48.6944 9.40648 44.9679 8.51328Z"/>
  </g>
  <g id="Black-S" transform="matrix(1 0 0 1 2882.24 696)">
   <path class="monochrome-0 multicolor-0:black SFSymbolsPreview000000" d="M90.0002-51.25C87.8002-56.35 84.8002-60.75 80.9002-64.65C77.0002-68.55 72.6002-71.55 67.5002-73.75C62.4002-75.95 57.0002-77.05 51.2002-77.05C45.4002-77.05 40.0002-75.95 34.9002-73.75C29.8002-71.55 25.4002-68.55 21.5002-64.65C17.6002-60.75 14.6002-56.35 12.4002-51.25C10.2002-46.15 9.10016-40.75 9.10016-34.95C9.10016-29.15 10.2002-23.75 12.4002-18.65C14.6002-13.55 17.6002-9.15 21.5002-5.25C25.4002-1.35 29.8002 1.65 34.9002 3.85C40.0002 6.05 45.4002 7.15 51.2002 7.15C57.0002 7.15 62.4002 6.05 67.5002 3.85C72.6002 1.65 77.0002-1.35 80.9002-5.25C84.8002-9.15 87.8002-13.55 90.0002-18.65C92.2002-23.75 93.3002-29.15 93.3002-34.95C93.3002-40.75 92.2002-46.15 90.0002-51.25ZM44.1002-8.05C44.2002-8.25 44.2002-8.35 44.2002-8.55C44.2002-9.25 44.2002-11.05 44.1002-13.45C36.2002-11.65 34.5002-17.25 34.5002-17.25C33.2002-20.55 31.3002-21.45 31.3002-21.45C28.7002-23.25 31.5002-23.25 31.5002-23.25C34.4002-23.05 35.9002-20.25 35.9002-20.25C38.4002-15.85 42.5002-17.15 44.2002-17.85C44.5002-19.65 45.2002-20.95 46.0002-21.65C39.6002-22.35 33.0002-24.85 33.0002-35.75C33.0002-38.85 34.1002-41.45 36.0002-43.35C35.7002-44.05 34.7002-46.95 36.3002-50.95C36.3002-50.95 38.7002-51.75 44.1002-48.05C46.4002-48.65 48.8002-48.95 51.2002-49.05C53.6002-49.05 56.1002-48.65 58.3002-48.05C63.7002-51.75 66.1002-50.95 66.1002-50.95C67.7002-46.95 66.7002-44.05 66.4002-43.35C68.2002-41.35 69.4002-38.85 69.4002-35.75C69.4002-24.75 62.8002-22.35 56.4002-21.65C57.5002-20.85 58.3002-19.05 58.3002-16.35C58.3002-12.55 58.3002-9.45 58.3002-8.55C58.3002-8.35 58.3002-8.25 58.4002-8.05C56.1002-7.45 53.7002-7.15 51.2002-7.15C48.8002-7.15 46.4002-7.45 44.1002-8.05Z"/>
  </g>
  <g id="Heavy-S" transform="matrix(1 0 0 1 2586.17 696)">
   <path class="monochrome-0 multicolor-0:black SFSymbolsPreview000000" d="M88.7728-50.9904C86.5965-56.0196 83.6436-60.3724 79.7908-64.2016C75.9616-68.0308 71.6089-71.0072 66.5796-73.1599C61.5504-75.3127 56.2449-76.4127 50.5392-76.4127C44.8337-76.4127 39.5282-75.3363 34.4989-73.1599C29.4697-70.9835 25.1406-68.0308 21.3113-64.2016C17.4821-60.3724 14.5057-56.0196 12.3529-50.9904C10.2002-45.9612 9.10016-40.6556 9.10016-34.95C9.10016-29.2444 10.1765-23.9388 12.3529-18.9096C14.5293-13.8804 17.4821-9.52763 21.3113-5.69844C25.1406-1.86925 29.4933 1.10715 34.5225 3.25995C39.5518 5.41274 44.8573 6.51274 50.5628 6.51274C56.2685 6.51274 61.5976 5.43635 66.6032 3.25995C71.6089 1.08355 75.9616-1.86925 79.8144-5.69844C83.6436-9.52763 86.62-13.8804 88.7728-18.9096C90.9493-23.9388 92.0257-29.2444 92.0257-34.95C92.0257-40.6556 90.9256-45.9848 88.7728-50.9904ZM43.1797-7.10592C43.2796-7.30592 43.2796-7.42952 43.2796-7.62952C43.2796-8.35312 43.2796-10.2003 43.1797-12.6947C34.9965-10.8475 33.2492-16.6363 33.2492-16.6363C31.902-20.0544 29.9313-20.978 29.9313-20.978C27.2368-22.8252 30.1312-22.8252 30.1312-22.8252C33.1256-22.6252 34.6728-19.7308 34.6728-19.7308C37.2672-15.1891 41.5088-16.5127 43.256-17.2363C43.556-19.1072 44.2796-20.4544 45.1269-21.178C38.5144-21.9016 31.6784-24.496 31.6784-35.7736C31.6784-38.9916 32.8256-41.6624 34.7728-43.6568C34.4729-44.3804 33.4256-47.3748 35.0729-51.5165C35.0729-51.5165 37.5673-52.3401 43.1561-48.522C45.5268-49.1456 48.0212-49.4692 50.5156-49.5456C53.0102-49.5456 55.581-49.1456 57.8753-48.522C63.4877-52.3401 65.9585-51.5165 65.9585-51.5165C67.6057-47.3984 66.5585-44.3804 66.2586-43.6568C68.1293-41.586 69.3529-38.9916 69.3529-35.7736C69.3529-24.396 62.5169-21.9252 55.9045-21.178C57.0282-20.3308 57.8753-18.4835 57.8753-15.6891C57.8753-11.7475 57.8753-8.52952 57.8753-7.60592C57.8753-7.40592 57.8753-7.28231 57.9753-7.08231C55.6046-6.45871 53.1101-6.15871 50.5156-6.15871C48.0448-6.18231 45.5504-6.48231 43.1797-7.10592Z"/>
  </g>
  <g id="Bold-S" transform="matrix(1 0 0 1 2290.17 696)">
   <path class="monochrome-0 multicolor-0:black SFSymbolsPreview000000" d="M87.4002-50.7C85.2502-55.65 82.3502-59.95 78.5502-63.7C74.8002-67.45 70.5002-70.4 65.5502-72.5C60.6002-74.6 55.4002-75.7 49.8002-75.7C44.2002-75.7 39.0002-74.65 34.0502-72.5C29.1002-70.35 24.8502-67.45 21.1002-63.7C17.3502-59.95 14.4002-55.65 12.3002-50.7C10.2002-45.75 9.10016-40.55 9.10016-34.95C9.10016-29.35 10.1502-24.15 12.3002-19.2C14.4502-14.25 17.3502-9.95 21.1002-6.2C24.8502-2.45 29.1502 0.5 34.1002 2.6C39.0502 4.7 44.2502 5.8 49.8502 5.8C55.4502 5.8 60.7002 4.75 65.6002 2.6C70.5002 0.45 74.8002-2.45 78.6002-6.2C82.3502-9.95 85.3002-14.25 87.4002-19.2C89.5502-24.15 90.6002-29.35 90.6002-34.95C90.6002-40.55 89.5002-45.8 87.4002-50.7ZM42.1502-6.05C42.2502-6.25 42.2502-6.4 42.2502-6.6C42.2502-7.35 42.2502-9.25 42.1502-11.85C33.6502-9.95 31.8502-15.95 31.8502-15.95C30.4502-19.5 28.4002-20.45 28.4002-20.45C25.6002-22.35 28.6002-22.35 28.6002-22.35C31.7002-22.15 33.3002-19.15 33.3002-19.15C36.0002-14.45 40.4002-15.8 42.2002-16.55C42.5002-18.5 43.2502-19.9 44.1502-20.65C37.3002-21.4 30.2002-24.1 30.2002-35.8C30.2002-39.15 31.4002-41.9 33.4002-44C33.1002-44.75 32.0002-47.85 33.7002-52.15C33.7002-52.15 36.3002-53 42.1002-49.05C44.5502-49.7 47.1502-50.05 49.7502-50.1C52.3502-50.1 55.0002-49.7 57.4002-49.05C63.2502-53 65.8002-52.15 65.8002-52.15C67.5002-47.9 66.4002-44.75 66.1002-44C68.0502-41.85 69.3002-39.15 69.3002-35.8C69.3002-24 62.2002-21.45 55.3502-20.65C56.5002-19.75 57.4002-17.85 57.4002-14.95C57.4002-10.85 57.4002-7.5 57.4002-6.55C57.4002-6.35 57.4002-6.2 57.5002-6C55.0502-5.35 52.4502-5.05 49.7502-5.05C47.2002-5.1 44.6002-5.4 42.1502-6.05Z"/>
  </g>
  <g id="Semibold-S" transform="matrix(1 0 0 1 1993.95 696)">
   <path class="monochrome-0 multicolor-0:black SFSymbolsPreview000000" d="M86.4538-50.4998C84.322-55.3952 81.4584-59.6588 77.6948-63.3542C73.9994-67.0496 69.7358-69.9814 64.8404-72.045C59.945-74.1086 54.8178-75.2086 49.2906-75.2086C43.7634-75.2086 38.6362-74.1768 33.7408-72.045C28.8454-69.9132 24.65-67.0496 20.9546-63.3542C17.2592-59.6588 14.3274-55.3952 12.2638-50.4998C10.2002-45.6044 9.10016-40.4772 9.10016-34.95C9.10016-29.4228 10.132-24.2956 12.2638-19.4002C14.3956-14.5048 17.2592-10.2412 20.9546-6.5458C24.65-2.8504 28.9136 0.0814 33.809 2.145C38.7044 4.2086 43.8316 5.3086 49.3588 5.3086C54.886 5.3086 60.0814 4.2768 64.9086 2.145C69.7358 0.0132 73.9994-2.8504 77.763-6.5458C81.4584-10.2412 84.3902-14.5048 86.4538-19.4002C88.5856-24.2956 89.6174-29.4228 89.6174-34.95C89.6174-40.4772 88.5174-45.6726 86.4538-50.4998ZM41.4404-5.322C41.5404-5.522 41.5404-5.6902 41.5404-5.8902C41.5404-6.6584 41.5404-8.5948 41.4404-11.2676C32.722-9.3312 30.8856-15.4768 30.8856-15.4768C29.4492-19.1178 27.3446-20.086 27.3446-20.086C24.4718-22.0224 27.5446-22.0224 27.5446-22.0224C30.7174-21.8224 32.3538-18.7496 32.3538-18.7496C35.1266-13.9404 39.6358-15.3086 41.4722-16.0768C41.7722-18.0814 42.5404-19.5178 43.4768-20.286C36.463-21.0542 29.181-23.827 29.181-35.8182C29.181-39.2592 30.4174-42.0638 32.4538-44.2366C32.1538-45.0048 31.0174-48.1776 32.7538-52.5868C32.7538-52.5868 35.4266-53.455 41.3722-49.414C43.8768-50.0822 46.5496-50.4504 49.2224-50.4822C51.8952-50.4822 54.5998-50.0822 57.0726-49.414C63.0864-53.455 65.691-52.5868 65.691-52.5868C67.4274-48.2458 66.291-45.0048 65.991-44.2366C67.9956-42.032 69.2638-39.2592 69.2638-35.8182C69.2638-23.727 61.9818-21.1224 54.968-20.286C56.1362-19.3496 57.0726-17.4132 57.0726-14.4404C57.0726-10.2312 57.0726-6.7902 57.0726-5.822C57.0726-5.622 57.0726-5.4538 57.1726-5.2538C54.668-4.5856 51.9952-4.2856 49.2224-4.2856C46.6178-4.3538 43.945-4.6538 41.4404-5.322Z"/>
  </g>
  <g id="Medium-S" transform="matrix(1 0 0 1 1697.61 696)">
   <path class="monochrome-0 multicolor-0:black SFSymbolsPreview000000" d="M85.7362-50.348C83.6182-55.202 80.7822-59.438 77.0462-63.092C73.3922-66.746 69.1562-69.664 64.3022-71.7C59.4482-73.736 54.3762-74.836 48.9042-74.836C43.4322-74.836 38.3602-73.818 33.5062-71.7C28.6522-69.582 24.4982-66.746 20.8442-63.092C17.1902-59.438 14.2722-55.202 12.2362-50.348C10.2002-45.494 9.10016-40.422 9.10016-34.95C9.10016-29.478 10.1182-24.406 12.2362-19.552C14.3542-14.698 17.1902-10.462 20.8442-6.808C24.4982-3.154 28.7342-0.236 33.5882 1.8C38.4422 3.836 43.5142 4.936 48.9862 4.936C54.4582 4.936 59.6122 3.918 64.3842 1.8C69.1562-0.318 73.3922-3.154 77.1282-6.808C80.7822-10.462 83.7002-14.698 85.7362-19.552C87.8542-24.406 88.8722-29.478 88.8722-34.95C88.8722-40.422 87.7722-45.576 85.7362-50.348ZM40.9022-4.77C41.0022-4.97 41.0022-5.152 41.0022-5.352C41.0022-6.134 41.0022-8.098 40.9022-10.826C32.0182-8.862 30.1542-15.118 30.1542-15.118C28.6902-18.828 26.5442-19.81 26.5442-19.81C23.6162-21.774 26.7442-21.774 26.7442-21.774C29.9722-21.574 31.6362-18.446 31.6362-18.446C34.4642-13.554 39.0562-14.936 40.9202-15.718C41.2202-17.764 42.0022-19.228 42.9662-20.01C35.8282-20.792 28.4082-23.62 28.4082-35.832C28.4082-39.342 29.6722-42.188 31.7362-44.416C31.4362-45.198 30.2722-48.426 32.0362-52.918C32.0362-52.918 34.7642-53.8 40.8202-49.69C43.3662-50.372 46.0942-50.754 48.8222-50.772C51.5502-50.772 54.2962-50.372 56.8242-49.69C62.9622-53.8 65.6082-52.918 65.6082-52.918C67.3722-48.508 66.2082-45.198 65.9082-44.416C67.9542-42.17 69.2362-39.342 69.2362-35.832C69.2362-23.52 61.8162-20.874 54.6782-20.01C55.8602-19.046 56.8242-17.082 56.8242-14.054C56.8242-9.762 56.8242-6.252 56.8242-5.27C56.8242-5.07 56.8242-4.888 56.9242-4.688C54.3782-4.006 51.6502-3.706 48.8222-3.706C46.1762-3.788 43.4482-4.088 40.9022-4.77Z"/>
  </g>
  <g id="Regular-S" transform="matrix(1 0 0 1 1401.38 696)">
   <path class="monochrome-0 multicolor-0:black SFSymbolsPreview000000" d="M84.8002-50.15C82.7002-54.95 79.9002-59.15 76.2002-62.75C72.6002-66.35 68.4002-69.25 63.6002-71.25C58.8002-73.25 53.8002-74.35 48.4002-74.35C43.0002-74.35 38.0002-73.35 33.2002-71.25C28.4002-69.15 24.3002-66.35 20.7002-62.75C17.1002-59.15 14.2002-54.95 12.2002-50.15C10.2002-45.35 9.10016-40.35 9.10016-34.95C9.10016-29.55 10.1002-24.55 12.2002-19.75C14.3002-14.95 17.1002-10.75 20.7002-7.15C24.3002-3.55 28.5002-0.65 33.3002 1.35C38.1002 3.35 43.1002 4.45 48.5002 4.45C53.9002 4.45 59.0002 3.45 63.7002 1.35C68.4002-0.75 72.6002-3.55 76.3002-7.15C79.9002-10.75 82.8002-14.95 84.8002-19.75C86.9002-24.55 87.9002-29.55 87.9002-34.95C87.9002-40.35 86.8002-45.45 84.8002-50.15ZM40.2002-4.05C40.3002-4.25 40.3002-4.45 40.3002-4.65C40.3002-5.45 40.3002-7.45 40.2002-10.25C31.1002-8.25 29.2002-14.65 29.2002-14.65C27.7002-18.45 25.5002-19.45 25.5002-19.45C22.5002-21.45 25.7002-21.45 25.7002-21.45C29.0002-21.25 30.7002-18.05 30.7002-18.05C33.6002-13.05 38.3002-14.45 40.2002-15.25C40.5002-17.35 41.3002-18.85 42.3002-19.65C35.0002-20.45 27.4002-23.35 27.4002-35.85C27.4002-39.45 28.7002-42.35 30.8002-44.65C30.5002-45.45 29.3002-48.75 31.1002-53.35C31.1002-53.35 33.9002-54.25 40.1002-50.05C42.7002-50.75 45.5002-51.15 48.3002-51.15C51.1002-51.15 53.9002-50.75 56.5002-50.05C62.8002-54.25 65.5002-53.35 65.5002-53.35C67.3002-48.85 66.1002-45.45 65.8002-44.65C67.9002-42.35 69.2002-39.45 69.2002-35.85C69.2002-23.25 61.6002-20.55 54.3002-19.65C55.5002-18.65 56.5002-16.65 56.5002-13.55C56.5002-9.15 56.5002-5.55 56.5002-4.55C56.5002-4.35 56.5002-4.15 56.6002-3.95C54.0002-3.25 51.2002-2.95 48.3002-2.95C45.6002-3.05 42.8002-3.35 40.2002-4.05Z"/>
  </g>
  <g id="Light-S" transform="matrix(1 0 0 1 1105.39 696)">
   <path class="monochrome-0 multicolor-0:black SFSymbolsPreview000000" d="M83.4335-49.9167C81.4002-54.6167 78.6335-58.7167 75.0002-62.2833C71.4668-65.8167 67.3335-68.65 62.6335-70.6167C57.9335-72.5833 53.0002-73.65 47.7002-73.65C42.4002-73.65 37.4668-72.65 32.7668-70.6167C28.0668-68.5833 24.0335-65.8167 20.4668-62.2833C16.9335-58.75 14.1002-54.6167 12.1335-49.9167C10.1668-45.2167 9.10016-40.2833 9.10016-34.9833C9.10016-29.6833 10.1002-24.7167 12.1335-20.05C14.1668-15.35 16.9335-11.25 20.4668-7.68333C24.0002-4.15 28.1335-1.31667 32.8335 0.65C37.5335 2.61667 42.4668 3.68333 47.7668 3.68333C53.0668 3.68333 58.1002 2.68333 62.7002 0.65C67.3002-1.38333 71.4335-4.15 75.0668-7.68333C78.6002-11.2167 81.4335-15.35 83.4335-20.05C85.4668-24.75 86.4668-29.6833 86.4668-34.9833C86.4668-40.2833 85.4335-45.2833 83.4335-49.9167ZM39.2668-3.08333C39.3668-3.28333 39.3668-3.48333 39.3668-3.68333C39.3668-4.51667 39.3668-6.58333 39.2668-9.45C29.9002-7.38333 27.9002-13.9833 27.9002-13.9833C26.3668-17.9167 24.1002-18.9167 24.1002-18.9167C21.0002-20.9833 24.3335-20.9833 24.3335-20.9833C27.7335-20.75 29.5002-17.4833 29.5002-17.4833C32.5002-12.3167 37.3335-13.7833 39.3002-14.6167C39.6335-16.7833 40.4335-18.3167 41.4668-19.15C33.9335-19.9833 26.1002-22.95 26.1002-35.8833C26.1002-39.5833 27.4335-42.5833 29.6002-44.95C29.2668-45.7833 28.0668-49.1833 29.9335-53.9167C29.9335-53.9167 32.8002-54.85 39.2335-50.5167C41.9002-51.25 44.8002-51.65 47.7002-51.65C50.5668-51.65 53.4668-51.25 56.1668-50.5167C62.6335-54.85 65.4668-53.9167 65.4668-53.9167C67.3335-49.25 66.1002-45.7833 65.8002-44.95C67.9668-42.5833 69.3002-39.5833 69.3002-35.8833C69.3002-22.8833 61.4668-20.0833 53.9335-19.1833C55.1668-18.15 56.2002-16.0833 56.2002-12.8833C56.2002-8.35 56.2002-4.65 56.2002-3.58333C56.2002-3.38333 56.2002-3.18333 56.3002-2.98333C53.6002-2.25 50.7335-1.95 47.7668-1.95C44.8335-2.05 41.9668-2.38333 39.2668-3.08333Z"/>
  </g>
  <g id="Thin-S" transform="matrix(1 0 0 1 809.627 696)">
   <path class="monochrome-0 multicolor-0:black SFSymbolsPreview000000" d="M81.626-49.6081C79.6808-54.1758 76.9582-58.1435 73.4131-61.6661C69.9679-65.1113 65.9228-67.8565 61.355-69.779C56.7873-71.7016 51.9421-72.7242 46.7744-72.7242C41.6066-72.7242 36.7615-71.7242 32.1937-69.779C27.626-67.8339 23.6808-65.1113 20.1582-61.6661C16.7131-58.221 13.9679-54.1758 12.0453-49.6081C10.1227-45.0403 9.10016-40.1952 9.10016-35.0274C9.10016-29.8597 10.1002-24.9371 12.0453-20.4468C13.9905-15.879 16.7131-11.9113 20.1582-8.38871C23.6034-4.94355 27.6486-2.19839 32.2163-0.275806C36.7841 1.64677 41.6292 2.66935 46.797 2.66935C51.9647 2.66935 56.9099 1.66935 61.3776-0.275806C65.8453-2.22097 69.8905-4.94355 73.4357-8.38871C76.8808-11.8339 79.626-15.879 81.626-20.4468C83.5711-25.0145 84.5711-29.8597 84.5711-35.0274C84.5711-40.1952 83.626-45.0629 81.626-49.6081ZM38.0324-1.80484C38.1324-2.00484 38.1324-2.20484 38.1324-2.40484C38.1324-3.28226 38.1324-5.4371 38.0324-8.39194C28.3131-6.2371 26.1808-13.1016 26.1808-13.1016C24.6034-17.2113 22.2486-18.2113 22.2486-18.2113C19.0163-20.3661 22.526-20.3661 22.526-20.3661C26.0582-20.0887 27.9131-16.7339 27.9131-16.7339C31.0453-11.3468 36.055-12.9016 38.1099-13.779C38.4873-16.0339 39.2873-17.6113 40.3647-18.4887C32.5228-19.3661 24.3808-22.421 24.3808-35.9274C24.3808-39.7597 25.7582-42.8919 28.0131-45.3468C27.6357-46.2242 26.4357-49.7565 28.3905-54.6661C28.3905-54.6661 31.3453-55.6435 38.0873-51.1339C40.8421-51.9113 43.8744-52.3113 46.9066-52.3113C49.8615-52.3113 52.8937-51.9113 55.726-51.1339C62.4131-55.6435 65.4228-54.6661 65.4228-54.6661C67.3776-49.779 66.1002-46.2242 65.8002-45.3468C68.055-42.8919 69.4324-39.7597 69.4324-35.9274C69.4324-22.3984 61.2905-19.4661 53.4486-18.5661C54.726-17.4887 55.8034-15.3339 55.8034-12.0016C55.8034-7.29194 55.8034-3.45968 55.8034-2.30484C55.8034-2.10484 55.8034-1.90484 55.9034-1.70484C53.0711-0.927419 50.1163-0.627419 47.0615-0.627419C43.8195-0.727419 40.8647-1.10484 38.0324-1.80484Z"/>
  </g>
  <g id="Ultralight-S" transform="matrix(1 0 0 1 513.401 696)">
   <path class="monochrome-0 multicolor-0:black SFSymbolsPreview000000" d="M80.7002-49.45C78.8002-53.95 76.1002-57.85 72.6002-61.35C69.2002-64.75 65.2002-67.45 60.7002-69.35C56.2002-71.25 51.4002-72.25 46.3002-72.25C41.2002-72.25 36.4002-71.25 31.9002-69.35C27.4002-67.45 23.5002-64.75 20.0002-61.35C16.6002-57.95 13.9002-53.95 12.0002-49.45C10.1002-44.95 9.10016-40.15 9.10016-35.05C9.10016-29.95 10.1002-25.05 12.0002-20.65C13.9002-16.15 16.6002-12.25 20.0002-8.75C23.4002-5.35 27.4002-2.65 31.9002-0.75C36.4002 1.15 41.2002 2.15 46.3002 2.15C51.4002 2.15 56.3002 1.15 60.7002-0.75C65.1002-2.65 69.1002-5.35 72.6002-8.75C76.0002-12.15 78.7002-16.15 80.7002-20.65C82.6002-25.15 83.6002-29.95 83.6002-35.05C83.6002-40.15 82.7002-44.95 80.7002-49.45ZM37.4002-1.15C37.5002-1.35 37.5002-1.55 37.5002-1.75C37.5002-2.65 37.5002-4.85 37.4002-7.85C27.5002-5.65 25.3002-12.65 25.3002-12.65C23.7002-16.85 21.3002-17.85 21.3002-17.85C18.0002-20.05 21.6002-20.05 21.6002-20.05C25.2002-19.75 27.1002-16.35 27.1002-16.35C30.3002-10.85 35.4002-12.45 37.5002-13.35C37.9002-15.65 38.7002-17.25 39.8002-18.15C31.8002-19.05 23.5002-22.15 23.5002-35.95C23.5002-39.85 24.9002-43.05 27.2002-45.55C26.8002-46.45 25.6002-50.05 27.6002-55.05C27.6002-55.05 30.6002-56.05 37.5002-51.45C40.3002-52.25 43.4002-52.65 46.5002-52.65C49.5002-52.65 52.6002-52.25 55.5002-51.45C62.3002-56.05 65.4002-55.05 65.4002-55.05C67.4002-50.05 66.1002-46.45 65.8002-45.55C68.1002-43.05 69.5002-39.85 69.5002-35.95C69.5002-22.15 61.2002-19.15 53.2002-18.25C54.5002-17.15 55.6002-14.95 55.6002-11.55C55.6002-6.75 55.6002-2.85 55.6002-1.65C55.6002-1.45 55.6002-1.25 55.7002-1.05C52.8002-0.25 49.8002 0.05 46.7002 0.05C43.3002-0.05 40.3002-0.45 37.4002-1.15Z"/>
  </g>
 </g>
</svg>
