<?xml version="1.0" encoding="UTF-8"?>
<!--Generator: Apple Native CoreSVG 175.5-->
<!DOCTYPE svg
PUBLIC "-//W3C//DTD SVG 1.1//EN"
       "http://www.w3.org/Graphics/SVG/1.1/DTD/svg11.dtd">
<svg version="1.1" xmlns="http://www.w3.org/2000/svg" xmlns:xlink="http://www.w3.org/1999/xlink" width="3300" height="2200">
 <!--glyph: "", point size: 100.0, font version: "18.0d12e2", template writer version: "101"-->
 <style>.multicolor-0:secondaryLabelColor {fill:#8A8A8E}
.multicolor-1:secondaryLabelColor {fill:#8A8A8E}

.hierarchical-0:secondary {fill:#4D4D4D}
.hierarchical-1:primary {fill:#212121}

.SFSymbolsPreview8A8A8E {fill:#8A8A8E;opacity:1.0}
</style>
 <g id="Notes">
  <rect height="2200" id="artboard" style="fill:white;opacity:1" width="3300" x="0" y="0"/>
  <line style="fill:none;stroke:black;opacity:1;stroke-width:0.5;" x1="263" x2="3036" y1="292" y2="292"/>
  <text style="stroke:none;fill:black;font-family:sans-serif;font-size:13;font-weight:bold;" transform="matrix(1 0 0 1 263 322)">Weight/Scale Variations</text>
  <text style="stroke:none;fill:black;font-family:sans-serif;font-size:13;text-anchor:middle;" transform="matrix(1 0 0 1 559.711 322)">Ultralight</text>
  <text style="stroke:none;fill:black;font-family:sans-serif;font-size:13;text-anchor:middle;" transform="matrix(1 0 0 1 856.422 322)">Thin</text>
  <text style="stroke:none;fill:black;font-family:sans-serif;font-size:13;text-anchor:middle;" transform="matrix(1 0 0 1 1153.13 322)">Light</text>
  <text style="stroke:none;fill:black;font-family:sans-serif;font-size:13;text-anchor:middle;" transform="matrix(1 0 0 1 1449.84 322)">Regular</text>
  <text style="stroke:none;fill:black;font-family:sans-serif;font-size:13;text-anchor:middle;" transform="matrix(1 0 0 1 1746.56 322)">Medium</text>
  <text style="stroke:none;fill:black;font-family:sans-serif;font-size:13;text-anchor:middle;" transform="matrix(1 0 0 1 2043.27 322)">Semibold</text>
  <text style="stroke:none;fill:black;font-family:sans-serif;font-size:13;text-anchor:middle;" transform="matrix(1 0 0 1 2339.98 322)">Bold</text>
  <text style="stroke:none;fill:black;font-family:sans-serif;font-size:13;text-anchor:middle;" transform="matrix(1 0 0 1 2636.69 322)">Heavy</text>
  <text style="stroke:none;fill:black;font-family:sans-serif;font-size:13;text-anchor:middle;" transform="matrix(1 0 0 1 2933.4 322)">Black</text>
  <line style="fill:none;stroke:black;opacity:1;stroke-width:0.5;" x1="263" x2="3036" y1="1903" y2="1903"/>
  <g transform="matrix(1 0 0 1 263 1933)">
   <path d="M9.24805 0.830078C13.5547 0.830078 17.1387-2.74414 17.1387-7.05078C17.1387-11.3574 13.5449-14.9316 9.23828-14.9316C4.94141-14.9316 1.36719-11.3574 1.36719-7.05078C1.36719-2.74414 4.95117 0.830078 9.24805 0.830078ZM9.24805-0.654297C5.70312-0.654297 2.87109-3.49609 2.87109-7.05078C2.87109-10.6055 5.69336-13.4473 9.23828-13.4473C12.793-13.4473 15.6445-10.6055 15.6445-7.05078C15.6445-3.49609 12.8027-0.654297 9.24805-0.654297ZM5.6543-7.05078C5.6543-6.62109 5.95703-6.32812 6.40625-6.32812L8.50586-6.32812L8.50586-4.20898C8.50586-3.76953 8.79883-3.4668 9.22852-3.4668C9.67773-3.4668 9.9707-3.76953 9.9707-4.20898L9.9707-6.32812L12.0898-6.32812C12.5293-6.32812 12.832-6.62109 12.832-7.05078C12.832-7.49023 12.5293-7.79297 12.0898-7.79297L9.9707-7.79297L9.9707-9.90234C9.9707-10.3516 9.67773-10.6543 9.22852-10.6543C8.79883-10.6543 8.50586-10.3516 8.50586-9.90234L8.50586-7.79297L6.40625-7.79297C5.95703-7.79297 5.6543-7.49023 5.6543-7.05078Z"/>
  </g>
  <g transform="matrix(1 0 0 1 281.867 1933)">
   <path d="M11.709 2.91016C17.1582 2.91016 21.6699-1.61133 21.6699-7.05078C21.6699-12.5 17.1484-17.0117 11.6992-17.0117C6.25977-17.0117 1.74805-12.5 1.74805-7.05078C1.74805-1.61133 6.26953 2.91016 11.709 2.91016ZM11.709 1.25C7.09961 1.25 3.41797-2.44141 3.41797-7.05078C3.41797-11.6602 7.08984-15.3516 11.6992-15.3516C16.3086-15.3516 20.0098-11.6602 20.0098-7.05078C20.0098-2.44141 16.3184 1.25 11.709 1.25ZM7.17773-7.05078C7.17773-6.57227 7.50977-6.25 8.00781-6.25L10.8789-6.25L10.8789-3.36914C10.8789-2.88086 11.2109-2.53906 11.6895-2.53906C12.1777-2.53906 12.5195-2.87109 12.5195-3.36914L12.5195-6.25L15.4004-6.25C15.8887-6.25 16.2305-6.57227 16.2305-7.05078C16.2305-7.53906 15.8887-7.88086 15.4004-7.88086L12.5195-7.88086L12.5195-10.752C12.5195-11.25 12.1777-11.5918 11.6895-11.5918C11.2109-11.5918 10.8789-11.25 10.8789-10.752L10.8789-7.88086L8.00781-7.88086C7.50977-7.88086 7.17773-7.53906 7.17773-7.05078Z"/>
  </g>
  <g transform="matrix(1 0 0 1 305.646 1933)">
   <path d="M14.9707 5.66406C21.9336 5.66406 27.6953-0.0976562 27.6953-7.05078C27.6953-14.0137 21.9238-19.7754 14.9609-19.7754C8.00781-19.7754 2.25586-14.0137 2.25586-7.05078C2.25586-0.0976562 8.01758 5.66406 14.9707 5.66406ZM14.9707 3.84766C8.93555 3.84766 4.08203-1.01562 4.08203-7.05078C4.08203-13.0957 8.92578-17.9492 14.9609-17.9492C21.0059-17.9492 25.8691-13.0957 25.8691-7.05078C25.8691-1.01562 21.0156 3.84766 14.9707 3.84766ZM9.19922-7.05078C9.19922-6.5332 9.57031-6.17188 10.1172-6.17188L14.0625-6.17188L14.0625-2.2168C14.0625-1.67969 14.4336-1.29883 14.9512-1.29883C15.4883-1.29883 15.8594-1.66992 15.8594-2.2168L15.8594-6.17188L19.8145-6.17188C20.3516-6.17188 20.7324-6.5332 20.7324-7.05078C20.7324-7.59766 20.3613-7.96875 19.8145-7.96875L15.8594-7.96875L15.8594-11.9141C15.8594-12.4609 15.4883-12.8418 14.9512-12.8418C14.4336-12.8418 14.0625-12.4609 14.0625-11.9141L14.0625-7.96875L10.1172-7.96875C9.57031-7.96875 9.19922-7.59766 9.19922-7.05078Z"/>
  </g>
  <text style="stroke:none;fill:black;font-family:sans-serif;font-size:13;font-weight:bold;" transform="matrix(1 0 0 1 263 1953)">Design Variations</text>
  <text style="stroke:none;fill:black;font-family:sans-serif;font-size:13;" transform="matrix(1 0 0 1 263 1971)">Symbols are supported in up to nine weights and three scales.</text>
  <text style="stroke:none;fill:black;font-family:sans-serif;font-size:13;" transform="matrix(1 0 0 1 263 1989)">For optimal layout with text and other symbols, vertically align</text>
  <text style="stroke:none;fill:black;font-family:sans-serif;font-size:13;" transform="matrix(1 0 0 1 263 2007)">symbols with the adjacent text.</text>
  <line style="fill:none;stroke:#00AEEF;stroke-width:0.5;opacity:1.0;" x1="776" x2="776" y1="1919" y2="1933"/>
  <g transform="matrix(1 0 0 1 776 1933)">
   <path d="M3.31055 0.15625C3.82812 0.15625 4.08203-0.0390625 4.26758-0.585938L5.52734-4.0332L11.2891-4.0332L12.5488-0.585938C12.7344-0.0390625 12.9883 0.15625 13.4961 0.15625C14.0137 0.15625 14.3457-0.15625 14.3457-0.644531C14.3457-0.810547 14.3164-0.966797 14.2383-1.17188L9.6582-13.3691C9.43359-13.9648 9.0332-14.2676 8.4082-14.2676C7.80273-14.2676 7.39258-13.9746 7.17773-13.3789L2.59766-1.16211C2.51953-0.957031 2.49023-0.800781 2.49023-0.634766C2.49023-0.146484 2.80273 0.15625 3.31055 0.15625ZM6.00586-5.51758L8.37891-12.0898L8.42773-12.0898L10.8008-5.51758Z"/>
  </g>
  <line style="fill:none;stroke:#00AEEF;stroke-width:0.5;opacity:1.0;" x1="793.197" x2="793.197" y1="1919" y2="1933"/>
  <text style="stroke:none;fill:black;font-family:sans-serif;font-size:13;font-weight:bold;" transform="matrix(1 0 0 1 776 1953)">Margins</text>
  <text style="stroke:none;fill:black;font-family:sans-serif;font-size:13;" transform="matrix(1 0 0 1 776 1971)">Leading and trailing margins on the left and right side of each symbol</text>
  <text style="stroke:none;fill:black;font-family:sans-serif;font-size:13;" transform="matrix(1 0 0 1 776 1989)">can be adjusted by modifying the x-location of the margin guidelines.</text>
  <text style="stroke:none;fill:black;font-family:sans-serif;font-size:13;" transform="matrix(1 0 0 1 776 2007)">Modifications are automatically applied proportionally to all</text>
  <text style="stroke:none;fill:black;font-family:sans-serif;font-size:13;" transform="matrix(1 0 0 1 776 2025)">scales and weights.</text>
  <g transform="matrix(1 0 0 1 1289 1933)">
   <path d="M2.8418 1.86523L4.54102 3.57422C5.40039 4.44336 6.38672 4.38477 7.31445 3.35938L18.0078-8.42773L17.041-9.4043L6.42578 2.27539C6.07422 2.67578 5.74219 2.77344 5.27344 2.30469L4.10156 1.14258C3.63281 0.683594 3.74023 0.341797 4.14062-0.0195312L15.6152-10.8203L14.6387-11.7871L3.04688-0.898438C2.06055 0.0195312 1.98242 0.996094 2.8418 1.86523ZM9.25781-16.3281C8.83789-15.918 8.80859-15.3418 9.04297-14.9512C9.27734-14.5898 9.73633-14.3555 10.3809-14.5215C11.8457-14.8633 13.3691-14.9219 14.7949-13.9844L14.209-12.5293C13.8672-11.6992 14.043-11.1133 14.5801-10.5664L16.875-8.25195C17.3633-7.76367 17.7734-7.74414 18.3398-7.8418L19.4043-8.03711L20.0684-7.36328L20.0293-6.80664C19.9902-6.30859 20.1172-5.92773 20.6055-5.44922L21.3672-4.70703C21.8457-4.22852 22.4609-4.19922 22.9297-4.66797L25.8398-7.58789C26.3086-8.05664 26.2891-8.65234 25.8105-9.13086L25.0391-9.89258C24.5605-10.3711 24.1895-10.5273 23.7109-10.4883L23.1348-10.4395L22.4902-11.0742L22.7344-12.1973C22.8613-12.7637 22.7051-13.2031 22.1191-13.7891L19.9219-15.9766C16.582-19.2969 12.1484-19.2188 9.25781-16.3281ZM10.752-15.957C13.1836-17.7344 16.4746-17.4316 18.7012-15.2051L21.1328-12.793C21.3672-12.5586 21.4062-12.373 21.3379-12.0312L21.0156-10.5469L22.5195-9.0625L23.5059-9.12109C23.7598-9.13086 23.8379-9.11133 24.0332-8.91602L24.6094-8.33984L22.168-5.89844L21.5918-6.47461C21.3965-6.66992 21.3672-6.74805 21.377-7.01172L21.4453-7.98828L19.9512-9.47266L18.4277-9.21875C18.1055-9.15039 17.959-9.17969 17.7148-9.41406L15.7129-11.416C15.459-11.6504 15.4297-11.8164 15.5859-12.1875L16.4648-14.2773C14.9023-15.7324 12.8711-16.3574 10.8398-15.7617C10.6836-15.7227 10.625-15.8496 10.752-15.957Z"/>
  </g>
  <text style="stroke:none;fill:black;font-family:sans-serif;font-size:13;font-weight:bold;" transform="matrix(1 0 0 1 1289 1953)">Exporting</text>
  <text style="stroke:none;fill:black;font-family:sans-serif;font-size:13;" transform="matrix(1 0 0 1 1289 1971)">Symbols should be outlined when exporting to ensure the</text>
  <text style="stroke:none;fill:black;font-family:sans-serif;font-size:13;" transform="matrix(1 0 0 1 1289 1989)">design is preserved when submitting to Xcode.</text>
  <text id="template-version" style="stroke:none;fill:black;font-family:sans-serif;font-size:13;text-anchor:end;" transform="matrix(1 0 0 1 3036 1933)">Template v.4.0</text>
  <text style="stroke:none;fill:black;font-family:sans-serif;font-size:13;text-anchor:end;" transform="matrix(1 0 0 1 3036 1951)">Requires Xcode 14 or greater</text>
  <text id="descriptive-name" style="stroke:none;fill:black;font-family:sans-serif;font-size:13;text-anchor:end;" transform="matrix(1 0 0 1 3036 1969)">Generated from git.pullrequest</text>
  <text style="stroke:none;fill:black;font-family:sans-serif;font-size:13;text-anchor:end;" transform="matrix(1 0 0 1 3036 1987)">Typeset at 100 points</text>
  <text style="stroke:none;fill:black;font-family:sans-serif;font-size:13;" transform="matrix(1 0 0 1 263 726)">Small</text>
  <text style="stroke:none;fill:black;font-family:sans-serif;font-size:13;" transform="matrix(1 0 0 1 263 1156)">Medium</text>
  <text style="stroke:none;fill:black;font-family:sans-serif;font-size:13;" transform="matrix(1 0 0 1 263 1586)">Large</text>
 </g>
 <g id="Guides">
  <g id="H-reference" style="fill:#27AAE1;stroke:none;" transform="matrix(1 0 0 1 339 696)">
   <path d="M0.993654 0L3.63775 0L29.3281-67.1323L30.0303-67.1323L30.0303-70.459L28.1226-70.459ZM11.6885-24.4799L46.9815-24.4799L46.2315-26.7285L12.4385-26.7285ZM55.1196 0L57.7637 0L30.6382-70.459L29.4326-70.459L29.4326-67.1323Z"/>
  </g>
  <line id="Baseline-S" style="fill:none;stroke:#27AAE1;opacity:1;stroke-width:0.5;" x1="263" x2="3036" y1="696" y2="696"/>
  <line id="Capline-S" style="fill:none;stroke:#27AAE1;opacity:1;stroke-width:0.5;" x1="263" x2="3036" y1="625.541" y2="625.541"/>
  <g id="H-reference" style="fill:#27AAE1;stroke:none;" transform="matrix(1 0 0 1 339 1126)">
   <path d="M0.993654 0L3.63775 0L29.3281-67.1323L30.0303-67.1323L30.0303-70.459L28.1226-70.459ZM11.6885-24.4799L46.9815-24.4799L46.2315-26.7285L12.4385-26.7285ZM55.1196 0L57.7637 0L30.6382-70.459L29.4326-70.459L29.4326-67.1323Z"/>
  </g>
  <line id="Baseline-M" style="fill:none;stroke:#27AAE1;opacity:1;stroke-width:0.5;" x1="263" x2="3036" y1="1126" y2="1126"/>
  <line id="Capline-M" style="fill:none;stroke:#27AAE1;opacity:1;stroke-width:0.5;" x1="263" x2="3036" y1="1055.54" y2="1055.54"/>
  <g id="H-reference" style="fill:#27AAE1;stroke:none;" transform="matrix(1 0 0 1 339 1556)">
   <path d="M0.993654 0L3.63775 0L29.3281-67.1323L30.0303-67.1323L30.0303-70.459L28.1226-70.459ZM11.6885-24.4799L46.9815-24.4799L46.2315-26.7285L12.4385-26.7285ZM55.1196 0L57.7637 0L30.6382-70.459L29.4326-70.459L29.4326-67.1323Z"/>
  </g>
  <line id="Baseline-L" style="fill:none;stroke:#27AAE1;opacity:1;stroke-width:0.5;" x1="263" x2="3036" y1="1556" y2="1556"/>
  <line id="Capline-L" style="fill:none;stroke:#27AAE1;opacity:1;stroke-width:0.5;" x1="263" x2="3036" y1="1485.54" y2="1485.54"/>
  <line id="left-margin-Regular-M" style="fill:none;stroke:#00AEEF;stroke-width:0.5;opacity:1.0;" x1="1392.13" x2="1392.13" y1="1030.79" y2="1150.12"/>
  <line id="right-margin-Regular-M" style="fill:none;stroke:#00AEEF;stroke-width:0.5;opacity:1.0;" x1="1507.55" x2="1507.55" y1="1030.79" y2="1150.12"/>
 </g>
 <g id="Symbols">
  <g id="Black-L" transform="matrix(1 0 0 1 2846.22 1556)">
   <path class="multicolor-0:secondaryLabelColor hierarchical-0:secondary SFSymbolsPreview8A8A8E" d="M49.2307-22.1542L49.2307-46.4441C60.8455-49.8452 69.3036-60.5299 69.3036-73.1571C69.3036-88.6168 56.836-101.084 41.3339-101.084C25.8742-101.084 13.4066-88.7364 13.4066-73.2768C13.4066-60.6097 21.8647-49.9224 33.4795-46.5637L33.4795-22.2738C21.8647-18.7531 13.4066-8.06841 13.4066 4.5588C13.4066 20.0185 25.8742 32.4861 41.3339 32.4861C56.7936 32.4861 69.2612 20.0185 69.2612 4.5588C69.3036-8.06841 60.8455-18.7531 49.2307-22.1542ZM41.3763 13.9542C36.1711 13.9542 32.0233 9.76403 32.0233 4.60125C32.0233-0.603987 36.2136-4.75175 41.3763-4.75175C46.5391-4.75175 50.7293-0.561538 50.7293 4.60125C50.7293 9.76403 46.5391 13.9542 41.3763 13.9542ZM41.2841-82.58C46.4393-82.63 50.6295-78.5241 50.6796-73.4114C50.7296-68.2562 46.6237-64.1085 41.4685-64.0584C36.3134-64.0084 32.1656-68.1143 32.1155-73.227C32.0204-78.3397 36.129-82.5299 41.2841-82.58Z"/>
   <path class="multicolor-1:secondaryLabelColor hierarchical-1:primary SFSymbolsPreview8A8A8E" d="M140.948-22.1542L140.948-50.9625L140.948-51.4168L140.948-67.0672C140.948-71.8745 139.71-75.5187 137.073-78.0367C134.555-80.5548 130.751-81.9148 125.827-81.9148L109.264-81.9148L109.264-91.1615C109.264-93.6483 108.284-95.2822 106.201-95.9781C104.118-96.6741 102.157-96.2304 100.242-94.4345L83.149-78.967C81.5075-77.53 80.6468-75.8537 80.6468-73.9356C80.6468-72.137 81.5075-70.4608 83.149-68.9041L100.242-53.4366C102.16-51.6832 104.121-51.1944 106.201-51.893C108.284-52.7086 109.264-54.3 109.264-56.6671L109.264-65.9616L121.117-65.9616C122.417-65.9616 123.288-65.5394 124.013-64.8544C124.738-64.127 125.04-63.0145 125.04-61.6714L125.04-51.3396L125.04-51.005L125.04-22.2391C113.545-18.8805 105.044-8.15331 105.044 4.4739C105.044 19.8139 117.632 32.4012 132.972 32.4012C148.312 32.4012 160.899 19.8139 160.899 4.4739C160.902-8.06841 152.401-18.7531 140.948-22.1542ZM132.932 13.9542C127.727 13.9542 123.579 9.76403 123.579 4.60125C123.579-0.603987 127.769-4.75175 132.932-4.75175C138.137-4.75175 142.285-0.561538 142.285 4.60125C142.327 9.76403 138.137 13.9542 132.932 13.9542Z"/>
  </g>
  <g id="Heavy-L" transform="matrix(1 0 0 1 2553.76 1556)">
   <path class="multicolor-0:secondaryLabelColor hierarchical-0:secondary SFSymbolsPreview8A8A8E" d="M45.4807-17.2011L45.4807-50.732C55.7825-53.81 63.2682-63.3131 63.2682-74.5232C63.2682-88.299 52.1437-99.4235 38.3069-99.4235C24.531-99.4235 13.4066-88.3904 13.4066-74.6146C13.4066-63.3559 20.8923-53.8405 31.1941-50.8234L31.1941-17.2925C20.8923-14.1231 13.4066-4.62001 13.4066 6.59003C13.4066 20.3659 24.531 31.4903 38.3069 31.4903C52.0828 31.4903 63.2072 20.3659 63.2072 6.59003C63.2682-4.62001 55.7825-14.1231 45.4807-17.2011ZM38.3678 15.1571C33.624 15.1571 29.8617 11.3339 29.8617 6.65098C29.8617 1.90715 33.685-1.85513 38.3678-1.85513C43.0507-1.85513 46.874 1.9681 46.874 6.65098C46.874 11.3339 43.0507 15.1571 38.3678 15.1571ZM37.9352-82.749C42.4442-82.9839 46.2674-79.5562 46.5023-75.1081C46.7371-70.5992 43.3095-66.8369 38.8005-66.602C34.2915-66.3672 30.5292-69.7949 30.2944-74.2429C29.9862-78.6909 33.4262-82.5142 37.9352-82.749Z"/>
   <path class="multicolor-1:secondaryLabelColor hierarchical-1:primary SFSymbolsPreview8A8A8E" d="M134.72-17.2011L134.72-50.2934L134.72-50.7389L134.72-66.9838C134.72-72.0716 133.445-75.9026 130.743-78.5132C128.132-81.1237 124.161-82.5023 118.995-82.5023L102.338-82.5023L102.338-91.8911C102.338-94.2446 101.386-95.8298 99.3805-96.5248C97.3745-97.2198 95.4722-96.8238 93.6433-95.0862L77.0419-80.2242C75.3653-78.7608 74.5055-77.1146 74.5055-75.2734C74.5055-73.5235 75.3653-71.8773 77.0419-70.3226L93.6433-55.4605C95.4846-53.7839 97.3868-53.3145 99.3805-54.0219C101.386-54.8083 102.338-56.3326 102.338-58.5947L102.338-68.0692L115.357-68.0692C117.037-68.0692 118.192-67.5808 119.078-66.744C119.963-65.8462 120.36-64.4963 120.36-62.7551L120.36-50.7085L120.36-50.3544L120.36-17.323C110.15-14.306 102.603-4.74192 102.603 6.46812C102.603 20.1526 113.819 31.3684 127.503 31.3684C141.188 31.3684 152.404 20.1526 152.404 6.46812C152.416-4.62001 144.869-14.1231 134.72-17.2011ZM127.455 15.1571C122.711 15.1571 118.948 11.3339 118.948 6.65098C118.948 1.90715 122.772-1.85513 127.455-1.85513C132.198-1.85513 135.961 1.9681 135.961 6.65098C136.022 11.3339 132.198 15.1571 127.455 15.1571Z"/>
  </g>
  <g id="Bold-L" transform="matrix(1 0 0 1 2262.4 1556)">
   <path class="multicolor-0:secondaryLabelColor hierarchical-0:secondary SFSymbolsPreview8A8A8E" d="M40.8437-11.3205L40.8437-55.7252C49.5823-58.3828 55.9214-66.4639 55.9214-75.9826C55.9214-87.7098 46.4291-97.2021 34.6261-97.2021C22.8989-97.2021 13.4066-87.7696 13.4066-76.0424C13.4066-66.4771 19.7456-58.3669 28.4843-55.785L28.4843-11.3803C19.7456-8.66289 13.4066-0.581786 13.4066 8.93685C13.4066 20.6641 22.8989 30.1563 34.6261 30.1563C46.3533 30.1563 55.8456 20.6641 55.8456 8.93685C55.9214-0.581786 49.5823-8.66289 40.8437-11.3205ZM34.7019 16.5714C30.4801 16.5714 27.1431 13.1586 27.1431 9.01261C27.1431 4.79081 30.5558 1.45386 34.7019 1.45386C38.8479 1.45386 42.2606 4.86657 42.2606 9.01261C42.2606 13.1586 38.8479 16.5714 34.7019 16.5714ZM33.6821-82.6572C37.3504-83.2107 40.7631-80.7304 41.3166-77.1379C41.8702-73.4696 39.3898-70.1327 35.7216-69.5791C32.0533-69.0256 28.7164-71.5059 28.1628-75.0984C27.5044-78.6909 30.0139-82.1036 33.6821-82.6572Z"/>
   <path class="multicolor-1:secondaryLabelColor hierarchical-1:primary SFSymbolsPreview8A8A8E" d="M126.715-11.3205L126.715-49.2522L126.715-49.6997L126.715-66.8159C126.715-72.182 125.411-76.1986 122.666-78.8831C119.982-81.5677 115.859-82.9611 110.462-82.9611L93.5225-82.9611L93.5225-92.5266C93.5225-94.7014 92.6217-96.2027 90.7312-96.879C88.8406-97.5553 87.039-97.2244 85.3423-95.5875L69.3321-81.4616C67.6633-80.0041 66.8223-78.427 66.8223-76.7012C66.8223-75.0352 67.6633-73.4581 69.3321-71.9408L85.3423-57.8149C87.0682-56.2538 88.8698-55.8179 90.7312-56.5234C92.6217-57.2595 93.5225-58.685 93.5225-60.8001L93.5225-70.4996L108.025-70.4996C110.188-70.4996 111.696-69.9313 112.773-68.901C113.85-67.7951 114.359-66.1383 114.359-63.8988L114.359-49.7157L114.359-49.328L114.359-11.472C105.68-8.89016 99.2647-0.733299 99.2647 8.78534C99.2647 20.4528 108.817 30.0048 120.484 30.0048C132.152 30.0048 141.704 20.4528 141.704 8.78534C141.733-0.581786 135.318-8.66289 126.715-11.3205ZM120.438 16.5714C116.216 16.5714 112.879 13.1586 112.879 9.01261C112.879 4.79081 116.292 1.45386 120.438 1.45386C124.66 1.45386 127.997 4.86657 127.997 9.01261C128.072 13.1586 124.66 16.5714 120.438 16.5714Z"/>
  </g>
  <g id="Semibold-L" transform="matrix(1 0 0 1 1969.38 1556)">
   <path class="multicolor-0:secondaryLabelColor hierarchical-0:secondary SFSymbolsPreview8A8A8E" d="M37.647-7.26646L37.647-59.1675C45.3081-61.5353 50.8565-68.6361 50.8565-76.9887C50.8565-87.3036 42.4895-95.6707 32.0886-95.6707C21.7737-95.6707 13.4066-87.3417 13.4066-77.0267C13.4066-68.6289 18.9551-61.4874 26.6162-59.2055L26.6162-7.30449C18.9551-4.89864 13.4066 2.20214 13.4066 10.5547C13.4066 20.8697 21.7737 29.2367 32.0886 29.2367C42.4035 29.2367 50.7706 20.8697 50.7706 10.5547C50.8565 2.20214 45.3081-4.89864 37.647-7.26646ZM32.1746 17.5463C28.3127 17.5463 25.2689 14.4166 25.2689 10.6407C25.2689 6.77879 28.3986 3.73506 32.1746 3.73506C35.9505 3.73506 39.0802 6.86475 39.0802 10.6407C39.0802 14.4166 35.9505 17.5463 32.1746 17.5463ZM30.7501-82.5939C33.8387-83.3671 36.9684-81.5398 37.7417-78.5372C38.515-75.4485 36.6877-72.4048 33.599-71.6315C30.5104-70.8582 27.4667-72.6856 26.6934-75.6882C25.7935-78.6909 27.6615-81.8206 30.7501-82.5939Z"/>
   <path class="multicolor-1:secondaryLabelColor hierarchical-1:primary SFSymbolsPreview8A8A8E" d="M121.197-7.26646L121.197-48.5345L121.197-48.9833L121.197-66.7001C121.197-72.2581 119.871-76.4026 117.098-79.1382C114.362-81.8738 110.134-83.2774 104.58-83.2774L87.4455-83.2774L87.4455-92.9646C87.4455-95.0163 86.5794-96.4598 84.7684-97.1232C82.9575-97.7866 81.2253-97.5005 79.6197-95.933L64.017-82.3146C62.3536-80.8612 61.5255-79.3318 61.5255-77.6855C61.5255-76.0773 62.3536-74.5479 64.017-73.0564L79.6197-59.438C81.266-57.9565 82.9982-57.5438 84.7684-58.2479C86.5794-58.9493 87.4455-60.3068 87.4455-62.3205L87.4455-72.1751L102.969-72.1751C105.467-72.1751 107.217-71.5517 108.427-70.3881C109.636-69.1386 110.221-67.2702 110.221-64.6872L110.221-49.0312L110.221-48.6204L110.221-7.43838C102.598-5.15653 96.9635 2.03022 96.9635 10.3828C96.9635 20.6597 105.369 29.0648 115.645 29.0648C125.922 29.0648 134.328 20.6597 134.328 10.3828C134.368 2.20214 128.734-4.89864 121.197-7.26646ZM115.6 17.5463C111.739 17.5463 108.695 14.4166 108.695 10.6407C108.695 6.77879 111.824 3.73506 115.6 3.73506C119.462 3.73506 122.505 6.86475 122.505 10.6407C122.592 14.4166 119.462 17.5463 115.6 17.5463Z"/>
  </g>
  <g id="Medium-L" transform="matrix(1 0 0 1 1675.46 1556)">
   <path class="multicolor-0:secondaryLabelColor hierarchical-0:secondary SFSymbolsPreview8A8A8E" d="M35.2231-4.1925L35.2231-61.7776C42.0671-63.9256 47.0162-70.2831 47.0162-77.7516C47.0162-86.9956 39.5023-94.5095 30.1645-94.5095C20.9205-94.5095 13.4066-87.0172 13.4066-77.7731C13.4066-70.2604 18.3557-63.8535 25.1997-61.7991L25.1997-4.21403C18.3557-2.04443 13.4066 4.31304 13.4066 11.7815C13.4066 21.0255 20.9205 28.5394 30.1645 28.5394C39.4086 28.5394 46.9224 21.0255 46.9224 11.7815C47.0162 4.31304 42.0671-2.04443 35.2231-4.1925ZM30.2582 18.2856C26.6692 18.2856 23.8478 15.3705 23.8478 11.8752C23.8478 8.28616 26.7629 5.46476 30.2582 5.46476C33.7536 5.46476 36.6687 8.37986 36.6687 11.8752C36.6687 15.3705 33.7536 18.2856 30.2582 18.2856ZM28.5269-82.5459C31.176-83.4857 34.0911-82.1536 35.031-79.5982C35.9709-76.949 34.6387-74.1276 31.9896-73.1877C29.3405-72.2478 26.5191-73.58 25.5792-76.1354C24.4961-78.6909 25.8777-81.606 28.5269-82.5459Z"/>
   <path class="multicolor-1:secondaryLabelColor hierarchical-1:primary SFSymbolsPreview8A8A8E" d="M117.012-4.1925L117.012-47.9902L117.012-48.4401L117.012-66.6124C117.012-72.3158 115.672-76.5573 112.876-79.3316C110.102-82.1059 105.794-83.5172 100.119-83.5172L82.8376-83.5172L82.8376-93.2968C82.8376-95.2551 81.9978-96.6548 80.2472-97.3084C78.4966-97.9619 76.817-97.7099 75.2806-96.195L59.9868-82.9615C58.3275-81.5112 57.5093-80.0178 57.5093-78.4319C57.5093-76.8675 58.3275-75.3742 59.9868-73.9023L75.2806-60.6688C76.8665-59.2476 78.5461-58.8524 80.2472-59.5554C81.9978-60.2305 82.8376-61.5365 82.8376-63.4733L82.8376-73.4455L99.1358-73.4455C101.886-73.4455 103.822-72.7803 105.131-71.5157C106.44-70.1573 107.084-68.1285 107.084-65.285L107.084-48.5123L107.084-48.0839L107.084-4.37991C100.261-2.32554 95.2178 4.12563 95.2178 11.5941C95.2178 20.8166 102.754 28.352 111.976 28.352C121.199 28.352 128.734 20.8166 128.734 11.5941C128.784 4.31304 123.741-2.04443 117.012-4.1925ZM111.932 18.2856C108.343 18.2856 105.522 15.3705 105.522 11.8752C105.522 8.28616 108.437 5.46476 111.932 5.46476C115.521 5.46476 118.343 8.37986 118.343 11.8752C118.436 15.3705 115.521 18.2856 111.932 18.2856Z"/>
  </g>
  <g id="Regular-L" transform="matrix(1 0 0 1 1382.4 1556)">
   <path class="multicolor-0:secondaryLabelColor hierarchical-0:secondary SFSymbolsPreview8A8A8E" d="M32.0615-0.183002L32.0615-65.182C37.8397-67.0435 42.007-72.4314 42.007-78.7466C42.007-86.5939 35.606-92.9949 27.6549-92.9949C19.8076-92.9949 13.4066-86.5939 13.4066-78.7466C13.4066-72.3885 17.5739-66.9397 23.3521-65.182L23.3521-0.183002C17.5739 1.67845 13.4066 7.06637 13.4066 13.3816C13.4066 21.2289 19.8076 27.6299 27.6549 27.6299C35.5022 27.6299 41.9032 21.2289 41.9032 13.3816C42.007 7.06637 37.8397 1.67845 32.0615-0.183002ZM27.7587 19.2499C24.5256 19.2499 21.9942 16.6147 21.9942 13.4854C21.9942 10.2523 24.6294 7.72089 27.7587 7.72089C30.888 7.72089 33.5232 10.3561 33.5232 13.4854C33.5232 16.6147 30.888 19.2499 27.7587 19.2499ZM25.627-82.4832C27.7029-83.6404 30.3381-82.9542 31.4953-80.9821C32.6525-78.9062 31.9663-76.3748 29.8903-75.2176C27.8144-74.0604 25.283-74.7466 24.1258-76.7187C22.804-78.6909 23.5511-81.3261 25.627-82.4832Z"/>
   <path class="multicolor-1:secondaryLabelColor hierarchical-1:primary SFSymbolsPreview8A8A8E" d="M111.554-0.183002L111.554-47.2803L111.554-47.7315L111.554-66.4979C111.554-72.3911 110.194-76.7591 107.369-79.5838C104.544-82.4086 100.133-83.83 94.3009-83.83L76.8273-83.83L76.8273-93.73C76.8273-95.5666 76.0218-96.9091 74.3499-97.5499C72.678-98.1907 71.0671-97.9831 69.6208-96.5368L54.73-83.8051C53.0762-82.3589 52.2707-80.9126 52.2707-79.4054C52.2707-77.8982 53.0762-76.452 54.73-75.0057L69.6208-62.274C71.128-60.9316 72.7389-60.5593 74.3499-61.261C76.0218-61.9017 76.8273-63.1404 76.8273-64.977L76.8273-75.1026L94.1359-75.1026C97.2159-75.1026 99.3929-74.3829 100.832-72.9864C102.272-71.4861 102.992-69.2481 102.992-66.0647L102.992-47.8353L102.992-47.3841L102.992-0.390593C97.2129 1.36707 92.9421 6.85878 92.9421 13.174C92.9421 21.0213 99.3429 27.4223 107.191 27.4223C115.038 27.4223 121.439 21.0213 121.439 13.174C121.5 7.06637 117.229 1.67845 111.554-0.183002ZM107.148 19.2499C103.915 19.2499 101.383 16.6147 101.383 13.4854C101.383 10.2523 104.018 7.72089 107.148 7.72089C110.381 7.72089 112.912 10.3561 112.912 13.4854C113.016 16.6147 110.381 19.2499 107.148 19.2499Z"/>
  </g>
  <g id="Light-L" transform="matrix(1 0 0 1 1089.95 1556)">
   <path class="multicolor-0:secondaryLabelColor hierarchical-0:secondary SFSymbolsPreview8A8A8E" d="M28.9093 2.24021L28.9093-66.5834C34.0151-68.0246 37.762-72.698 37.762-78.2567C37.762-84.9272 32.2857-90.4036 25.5535-90.4036C18.883-90.4036 13.4066-84.9272 13.4066-78.2567C13.4066-72.7392 17.1536-67.9628 22.2594-66.5834L22.2594 2.24021C17.1536 3.68137 13.4066 8.3548 13.4066 13.9135C13.4066 20.584 18.883 26.0603 25.5535 26.0603C32.2239 26.0603 37.7003 20.584 37.7003 13.9135C37.762 8.3548 34.0151 3.68137 28.9093 2.24021ZM25.6152 19.7398C22.4242 19.7398 19.8507 17.1046 19.8507 13.9753C19.8507 10.7842 22.4859 8.21076 25.6152 8.21076C28.7445 8.21076 31.3797 10.846 31.3797 13.9753C31.3797 17.1046 28.7445 19.7398 25.6152 19.7398ZM22.0125-80.4803C23.2479-82.4361 25.8831-83.0947 27.8388-81.9212C29.7946-80.6859 30.4532-78.1124 29.2179-76.1567C27.9826-74.2009 25.4091-73.5423 23.4534-74.7158C21.333-75.8894 20.7772-78.5246 22.0125-80.4803Z"/>
   <path class="multicolor-1:secondaryLabelColor hierarchical-1:primary SFSymbolsPreview8A8A8E" d="M104.157 2.24021L104.157-45.1934L104.157-45.7286L104.157-65.966C104.157-71.607 102.881-75.8069 100.266-78.4215C97.6516-81.0361 93.4926-82.4155 87.9546-82.4155L69.2201-82.4155L69.2201-92.4416C69.2201-94.068 68.5407-95.2004 67.0789-95.7151C65.6172-96.2298 64.2584-96.1062 63.0643-94.9121L48.4677-82.6008C47.1501-81.4067 46.4707-80.2126 46.4707-78.9155C46.4707-77.6185 47.1501-76.4244 48.4677-75.2303L63.0643-62.9189C64.3613-61.7866 65.7201-61.4984 67.0789-62.116C68.5407-62.6307 69.2201-63.7013 69.2201-65.3277L69.2201-75.6214L87.7899-75.6214C91.2896-75.6214 93.7186-74.8597 95.2426-73.2951C96.7656-71.6687 97.5276-69.1364 97.5276-65.5748L97.5276-45.7904L97.5276-45.2551L97.5276 2.11668C92.4216 3.49607 88.6132 8.23127 88.6132 13.79C88.6132 20.4604 94.0896 25.9368 100.76 25.9368C107.431 25.9368 112.907 20.4604 112.907 13.79C113.01 8.3548 109.201 3.68137 104.157 2.24021ZM100.802 19.7398C97.6096 19.7398 95.0366 17.1046 95.0366 13.9753C95.0366 10.7842 97.6716 8.21076 100.802 8.21076C103.993 8.21076 106.566 10.846 106.566 13.9753C106.628 17.1046 103.993 19.7398 100.802 19.7398Z"/>
  </g>
  <g id="Thin-L" transform="matrix(1 0 0 1 798.881 1556)">
   <path class="multicolor-0:secondaryLabelColor hierarchical-0:secondary SFSymbolsPreview8A8A8E" d="M24.7403 5.4451L24.7403-68.4369C28.9566-69.3222 32.1477-73.0507 32.1477-77.6088C32.1477-82.7229 27.8943-86.9763 22.7741-86.9763C17.66-86.9763 13.4066-82.7229 13.4066-77.6088C13.4066-73.203 16.5977-69.3161 20.814-68.4369L20.814 5.4451C16.5977 6.3304 13.4066 10.0589 13.4066 14.617C13.4066 19.731 17.66 23.9845 22.7741 23.9845C27.8881 23.9845 32.1415 19.731 32.1415 14.617C32.1477 10.0589 28.9566 6.3304 24.7403 5.4451ZM22.7802 20.3877C19.6448 20.3877 17.0157 17.7525 17.0157 14.6232C17.0157 11.4877 19.6509 8.85867 22.7802 8.85867C25.9095 8.85867 28.5447 11.4939 28.5447 14.6232C28.5447 17.7525 25.9095 20.3877 22.7802 20.3877ZM17.232-77.8313C17.3556-80.8432 19.9908-83.2806 23.0027-83.1632C26.0146-83.0396 28.452-80.4106 28.3285-77.3987C28.2049-74.3868 25.5758-71.9494 22.564-72.0668C19.3874-72.1842 17.1084-74.8194 17.232-77.8313Z"/>
   <path class="multicolor-1:secondaryLabelColor hierarchical-1:primary SFSymbolsPreview8A8A8E" d="M94.3736 5.4451L94.3736-42.4332L94.3736-43.0796L94.3736-65.2625C94.3736-70.57 93.2086-74.5475 90.8716-76.8842C88.5346-79.2209 84.7099-80.5447 79.5609-80.5447L59.1588-80.5447L59.1588-90.7375C59.1588-92.086 58.6462-92.9404 57.4624-93.2884C56.2786-93.6363 55.2533-93.624 54.3927-92.7634L40.1852-81.0079C39.3123-80.1473 38.7997-79.2867 38.7997-78.2676C38.7997-77.2485 39.3123-76.388 40.1852-75.5274L54.3927-63.7719C55.4118-62.9175 56.4371-62.7404 57.4624-63.2469C58.6462-63.5948 59.1588-64.443 59.1588-65.7915L59.1588-76.3076L79.3962-76.3076C83.4519-76.3076 86.2146-75.4903 87.8496-73.7033C89.4836-71.9102 90.3016-68.9888 90.3016-64.9269L90.3016-43.0858L90.3016-42.4393L90.3016 5.43274C86.0846 6.31186 82.8877 10.0465 82.8877 14.6046C82.8877 19.7187 87.1416 23.9721 92.2556 23.9721C97.3696 23.9721 101.623 19.7187 101.623 14.6046C101.782 10.0589 98.5836 6.3304 94.3736 5.4451ZM92.4076 20.3877C89.2716 20.3877 86.6426 17.7525 86.6426 14.6232C86.6426 11.4877 89.2786 8.85867 92.4076 8.85867C95.5426 8.85867 98.1716 11.4939 98.1716 14.6232C98.1786 17.7525 95.5426 20.3877 92.4076 20.3877Z"/>
  </g>
  <g id="Ultralight-L" transform="matrix(1 0 0 1 505.058 1556)">
   <path class="multicolor-0:secondaryLabelColor hierarchical-0:secondary SFSymbolsPreview8A8A8E" d="M22.6049 7.08663L22.6049-69.3863C26.3657-69.9869 29.2721-73.2313 29.2721-77.277C29.2721-81.5938 25.645-85.2209 21.3505-85.2209C17.0337-85.2209 13.4066-81.5938 13.4066-77.277C13.4066-73.4406 16.313-70.0092 20.0738-69.3863L20.0738 7.08663C16.313 7.68721 13.4066 10.9317 13.4066 14.9773C13.4066 19.2941 17.0337 22.9212 21.3505 22.9212C25.6673 22.9212 29.2944 19.2941 29.2944 14.9773C29.2721 10.9317 26.3657 7.68721 22.6049 7.08663ZM21.3282 20.7195C18.2212 20.7195 15.5637 18.0843 15.5637 14.955C15.5637 11.848 18.1989 9.19052 21.3282 9.19052C24.4575 9.19052 27.0927 11.8257 27.0927 14.955C27.0927 18.0843 24.4575 20.7195 21.3282 20.7195ZM14.7835-76.4745C14.3377-80.0273 16.9729-83.3759 20.5257-83.7994C24.0785-84.2452 27.4271-81.5877 27.8729-78.0349C28.3187-74.4821 25.6613-71.1335 22.1084-70.71C18.3909-70.2864 15.2293-72.9216 14.7835-76.4745Z"/>
   <path class="multicolor-1:secondaryLabelColor hierarchical-1:primary SFSymbolsPreview8A8A8E" d="M89.3629 7.08663L89.3629-41.0194L89.3629-41.7228L89.3629-64.9022C89.3629-70.0388 88.2549-73.9025 86.0599-76.0968C83.8659-78.2912 80.2114-79.5865 75.2617-79.5865L54.0055-79.5865L54.0055-89.8647C54.0055-91.0709 53.5783-91.7829 52.5368-92.0455C51.4954-92.308 50.6409-92.3526 49.9512-91.6628L35.943-80.192C35.2979-79.5023 34.8706-78.8125 34.8706-77.9358C34.8706-77.059 35.2979-76.3693 35.943-75.6795L49.9512-64.2088C50.8279-63.4967 51.6824-63.3766 52.5368-63.8261C53.5783-64.0886 54.0055-64.823 54.0055-66.0291L54.0055-76.6591L75.097-76.6591C79.4375-76.6591 82.3711-75.8133 84.0629-73.9124C85.7539-72.0338 86.5999-68.9132 86.5999-64.5951L86.5999-41.7005L86.5999-40.9971L86.5999 7.13121C82.8392 7.75409 79.9551 10.9762 79.9551 15.0219C79.9551 19.3387 83.5819 22.9658 87.8989 22.9658C92.2159 22.9658 95.8429 19.3387 95.8429 15.0219C96.0299 10.9317 93.1459 7.68721 89.3629 7.08663ZM88.1079 20.7195C85.0009 20.7195 82.3438 18.0843 82.3438 14.955C82.3438 11.848 84.9789 9.19052 88.1079 9.19052C91.2149 9.19052 93.8729 11.8257 93.8729 14.955C93.8509 18.0843 91.2149 20.7195 88.1079 20.7195Z"/>
  </g>
  <g id="Black-M" transform="matrix(1 0 0 1 2859.76 1126)">
   <path class="multicolor-0:secondaryLabelColor hierarchical-0:secondary SFSymbolsPreview8A8A8E" d="M43.9568-29.0327L43.9568-40.4273C53.9927-43.283 61.3243-52.4796 61.3243-63.3779C61.3243-76.6428 50.636-87.331 37.3598-87.331C24.0949-87.331 13.4066-76.7597 13.4066-63.4948C13.4066-52.5846 20.7382-43.3886 30.774-40.5442L30.774-29.1496C20.7382-26.177 13.4066-16.9804 13.4066-6.08209C13.4066 7.18283 24.0949 17.8711 37.3598 17.8711C50.6247 17.8711 61.313 7.18283 61.313-6.08209C61.3243-16.9804 53.9927-26.177 43.9568-29.0327ZM37.3711 1.9032C32.9475 1.9032 29.3971-1.65853 29.3971-6.0708C29.3971-10.4944 32.9588-14.0448 37.3711-14.0448C41.7834-14.0448 45.3451-10.4831 45.3451-6.0708C45.3451-1.65853 41.7834 1.9032 37.3711 1.9032ZM37.3929-71.5019C41.8283-71.4901 45.39-67.9084 45.3782-63.4843C45.3664-59.0489 41.7847-55.4984 37.3493-55.5103C32.9139-55.5221 29.3634-59.1038 29.3753-63.5279C29.3764-67.952 32.9575-71.5137 37.3929-71.5019Z"/>
   <path class="multicolor-1:secondaryLabelColor hierarchical-1:primary SFSymbolsPreview8A8A8E" d="M116.57-29.0327L116.57-47.7154L116.57-48.0863L116.57-59.8997C116.57-63.349 115.654-65.9889 113.694-67.8317C111.851-69.6746 109.082-70.7066 105.516-70.7066L92.5935-70.7066L92.5935-77.7654C92.5935-79.7782 91.826-81.0573 90.1747-81.5802C88.5235-82.1031 86.9885-81.7298 85.4643-80.3224L71.8391-67.8758C70.6431-66.8193 69.9925-65.5288 69.9925-64.0052C69.9925-62.5985 70.6431-61.3081 71.8391-60.1346L85.4643-47.688C86.9879-46.2919 88.5229-45.9079 90.1747-46.4302C91.826-47.0701 92.5935-48.3379 92.5935-50.2337L92.5935-57.3025L100.944-57.3025C101.683-57.3025 102.147-57.0266 102.582-56.6036C103.017-56.1694 103.176-55.4717 103.176-54.722L103.176-47.9807L103.176-47.7267L103.176-29.0553C93.2569-26.2108 85.914-17.003 85.914-6.10467C85.914 7.04332 96.7192 17.8485 109.868 17.8485C123.015 17.8485 133.821 7.04332 133.821-6.10467C133.82-16.9804 126.477-26.177 116.57-29.0327ZM109.856 1.9032C105.432 1.9032 101.881-1.65853 101.881-6.0708C101.881-10.4944 105.443-14.0448 109.856-14.0448C114.279-14.0448 117.83-10.4831 117.83-6.0708C117.841-1.65853 114.279 1.9032 109.856 1.9032Z"/>
  </g>
  <g id="Heavy-M" transform="matrix(1 0 0 1 2566.81 1126)">
   <path class="multicolor-0:secondaryLabelColor hierarchical-0:secondary SFSymbolsPreview8A8A8E" d="M40.5817-24.4142L40.5817-44.4897C49.396-47.0683 55.8158-55.1758 55.8158-64.7585C55.8158-76.4859 46.3552-85.9464 34.5945-85.9464C22.8671-85.9464 13.4066-76.5752 13.4066-64.8478C13.4066-55.2368 19.8263-47.1244 28.6406-44.5791L28.6406-24.5036C19.8263-21.8356 13.4066-13.7282 13.4066-4.14549C13.4066 7.58196 22.8671 17.0425 34.5945 17.0425C46.322 17.0425 55.7825 7.58196 55.7825-4.14549C55.8158-13.7282 49.396-21.8356 40.5817-24.4142ZM34.6278 3.03388C30.6514 3.03388 27.4817-0.169107 27.4817-4.11224C27.4817-8.08862 30.6847-11.2583 34.6278-11.2583C38.5709-11.2583 41.7739-8.05537 41.7739-4.11224C41.7739-0.169107 38.5709 3.03388 34.6278 3.03388ZM34.4525-71.8519C38.3338-71.947 41.5368-68.9043 41.6319-65.0563C41.727-61.1751 38.6843-58.0053 34.8031-57.9102C30.9218-57.815 27.7521-60.8578 27.6569-64.7058C27.5235-68.5538 30.5713-71.7568 34.4525-71.8519Z"/>
   <path class="multicolor-1:secondaryLabelColor hierarchical-1:primary SFSymbolsPreview8A8A8E" d="M111.163-24.4142L111.163-47.2539L111.163-47.6084L111.163-59.8672C111.163-63.6139 110.203-66.452 108.161-68.4047C106.208-70.3574 103.253-71.4114 99.4217-71.4114L86.5241-71.4114L86.5241-78.5975C86.5241-80.4993 85.7736-81.7502 84.1781-82.2839C82.5826-82.8175 81.0814-82.483 79.6185-81.1094L66.4467-69.2159C65.1853-68.1103 64.5241-66.8261 64.5241-65.3582C64.5241-63.9796 65.1853-62.6954 66.4467-61.5005L79.6185-49.6069C81.0864-48.2666 82.5876-47.8938 84.1781-48.4325C85.7736-49.0555 86.5241-50.2732 86.5241-52.0856L86.5241-59.315L95.8993-59.315C96.97-59.315 97.689-58.9782 98.2731-58.4223C98.8572-57.8332 99.1046-56.9306 99.1046-55.8266L99.1046-47.5523L99.1046-47.2871L99.1046-24.4807C90.3796-21.9354 83.9266-13.7947 83.9266-4.212C83.9266 7.42611 93.4765 16.976 105.114 16.976C116.752 16.976 126.302 7.42611 126.302-4.212C126.307-13.7282 119.854-21.8356 111.163-24.4142ZM105.086 3.03388C101.11 3.03388 97.9402-0.169107 97.9402-4.11224C97.9402-8.08862 101.143-11.2583 105.086-11.2583C109.062-11.2583 112.232-8.05537 112.232-4.11224C112.265-0.169107 109.062 3.03388 105.086 3.03388Z"/>
  </g>
  <g id="Bold-M" transform="matrix(1 0 0 1 2274.3 1126)">
   <path class="multicolor-0:secondaryLabelColor hierarchical-0:secondary SFSymbolsPreview8A8A8E" d="M36.8062-19.2478L36.8062-49.0341C44.254-51.3028 49.6538-58.1918 49.6538-66.3028C49.6538-76.3104 41.5667-84.3975 31.5013-84.3975C21.4937-84.3975 13.4066-76.3689 13.4066-66.3613C13.4066-58.2038 18.8064-51.3034 26.2542-49.0926L26.2542-19.3063C18.8064-16.9792 13.4066-10.0902 13.4066-1.97913C13.4066 8.02844 21.4937 16.1156 31.5013 16.1156C41.5088 16.1156 49.596 8.02844 49.596-1.97913C49.6538-10.0902 44.254-16.9792 36.8062-19.2478ZM31.5591 4.2987C28.0829 4.2987 25.3391 1.49703 25.3391-1.9213C25.3391-5.39746 28.1408-8.1413 31.5591-8.1413C34.9774-8.1413 37.7791-5.33964 37.7791-1.9213C37.7791 1.49703 34.9774 4.2987 31.5591 4.2987ZM31.1634-72.2434C34.4247-72.4582 37.2264-70.0184 37.4412-66.8148C37.656-63.5535 35.2162-60.8097 31.9548-60.5948C28.6935-60.38 25.9496-62.8199 25.7348-66.0234C25.4509-69.2269 27.902-72.0286 31.1634-72.2434Z"/>
   <path class="multicolor-1:secondaryLabelColor hierarchical-1:primary SFSymbolsPreview8A8A8E" d="M105.115-19.2478L105.115-46.7375L105.115-47.0738L105.115-59.8309C105.115-63.9103 104.106-66.9701 101.972-69.0457C99.8966-71.1212 96.7318-72.1998 92.6052-72.1998L79.7348-72.1998L79.7348-79.5283C79.7348-81.306 79.0031-82.5254 77.47-83.071C75.9368-83.6167 74.4735-83.3256 73.0793-81.9898L60.4146-70.7149C59.0801-69.5545 58.4069-68.2772 58.4069-66.8717C58.4069-65.5246 59.0801-64.2473 60.4146-63.0285L73.0793-51.7536C74.4848-50.4756 75.9482-50.1154 77.47-50.6724C79.0031-51.2764 79.7348-52.4381 79.7348-54.1573L79.7348-61.5662L90.2559-61.5662C91.6983-61.5662 92.702-61.1614 93.4531-60.4568C94.2042-59.6945 94.5505-58.5625 94.5505-57.0623L94.5505-47.0732L94.5505-46.7954L94.5505-19.3635C87.1611-17.1526 81.7035-10.2058 81.7035-2.09479C81.7035 7.85432 89.8491 15.9999 99.7982 15.9999C109.747 15.9999 117.893 7.85432 117.893-2.09479C117.904-10.0902 112.446-16.9792 105.115-19.2478ZM99.7516 4.2987C96.2755 4.2987 93.5316 1.49703 93.5316-1.9213C93.5316-5.39746 96.3333-8.1413 99.7516-8.1413C103.228-8.1413 105.971-5.33964 105.971-1.9213C106.029 1.49703 103.228 4.2987 99.7516 4.2987Z"/>
  </g>
  <g id="Semibold-M" transform="matrix(1 0 0 1 1980.49 1126)">
   <path class="multicolor-0:secondaryLabelColor hierarchical-0:secondary SFSymbolsPreview8A8A8E" d="M34.2034-15.6862L34.2034-52.167C40.7092-54.222 45.4058-60.2711 45.4058-67.3675C45.4058-76.1894 38.2655-83.3298 29.3688-83.3298C20.5469-83.3298 13.4066-76.2266 13.4066-67.4047C13.4066-60.2491 18.1033-54.1844 24.6091-52.2042L24.6091-15.7233C18.1033-13.6312 13.4066-7.58212 13.4066-0.485655C13.4066 8.33624 20.5469 15.4766 29.3688 15.4766C38.1907 15.4766 45.3311 8.33624 45.3311-0.485655C45.4058-7.58212 40.7092-13.6312 34.2034-15.6862ZM29.4436 5.17066C26.3123 5.17066 23.8621 2.64565 23.8621-0.410888C23.8621-3.5422 26.3871-5.99243 29.4436-5.99243C32.5001-5.99243 35.0251-3.46743 35.0251-0.410888C35.0251 2.64565 32.5001 5.17066 29.4436 5.17066ZM28.8959-72.5133C31.7299-72.8107 34.2549-70.7864 34.5522-68.0272C34.8495-65.1932 32.8253-62.7429 29.9913-62.4456C27.1573-62.1483 24.7071-64.1726 24.4097-66.9318C24.022-69.691 26.0619-72.216 28.8959-72.5133Z"/>
   <path class="multicolor-1:secondaryLabelColor hierarchical-1:primary SFSymbolsPreview8A8A8E" d="M100.946-15.6862L100.946-46.3816L100.946-46.7053L100.946-59.8059C100.946-64.1146 99.903-67.3273 97.7055-69.4876C95.5453-71.6478 92.2363-72.7434 87.906-72.7434L75.0543-72.7434L75.0543-80.17C75.0543-81.8621 74.3357-83.0598 72.8455-83.6137C71.3554-84.1676 69.9181-83.9065 68.5712-82.5968L56.2561-71.7483C54.8712-70.5502 54.1898-69.2777 54.1898-67.9151C54.1898-66.5898 54.8712-65.3172 56.2561-64.0819L68.5712-53.2334C69.9337-51.9985 71.371-51.647 72.8455-52.2165C74.3357-52.8076 75.0543-53.9306 75.0543-55.5855L75.0543-63.1182L86.3654-63.1182C88.0641-63.1182 89.2641-62.6665 90.1302-61.8594C90.9964-60.9776 91.4109-59.6876 91.4109-57.9142L91.4109-46.7429L91.4109-46.4564L91.4109-15.8357C84.9423-13.8555 80.1709-7.73165 80.1709-0.635189C80.1709 8.14952 87.3484 15.327 96.1331 15.327C104.918 15.327 112.095 8.14952 112.095-0.635189C112.111-7.58212 107.34-13.6312 100.946-15.6862ZM96.074 5.17066C92.9427 5.17066 90.4924 2.64565 90.4924-0.410888C90.4924-3.5422 93.0174-5.99243 96.074-5.99243C99.2053-5.99243 101.656-3.46743 101.656-0.410888C101.731 2.64565 99.2053 5.17066 96.074 5.17066Z"/>
  </g>
  <g id="Medium-M" transform="matrix(1 0 0 1 1685.98 1126)">
   <path class="multicolor-0:secondaryLabelColor hierarchical-0:secondary SFSymbolsPreview8A8A8E" d="M32.2298-12.9855L32.2298-54.5425C38.0213-56.4355 42.1848-61.8476 42.1848-68.1748C42.1848-76.0977 35.7624-82.5201 27.7519-82.5201C19.829-82.5201 13.4066-76.1187 13.4066-68.1959C13.4066-61.8 17.5701-56.3689 23.3616-54.5636L23.3616-13.0066C17.5701-11.0926 13.4066-5.68042 13.4066 0.646762C13.4066 8.56962 19.829 14.9921 27.7519 14.9921C35.6748 14.9921 42.0972 8.56962 42.0972 0.646762C42.1848-5.68042 38.0213-11.0926 32.2298-12.9855ZM27.8395 5.83181C24.9697 5.83181 22.7421 3.51659 22.7421 0.734373C22.7421-2.13545 25.0573-4.36307 27.8395-4.36307C30.6217-4.36307 32.937-2.04784 32.937 0.734373C32.937 3.51659 30.6217 5.83181 27.8395 5.83181ZM27.1766-72.718C29.6865-73.0779 32.0018-71.3687 32.3616-68.9464C32.7215-66.4364 31.0124-64.2088 28.5024-63.849C25.9925-63.4891 23.7649-65.1982 23.405-67.6206C22.9386-70.0429 24.6666-72.3581 27.1766-72.718Z"/>
   <path class="multicolor-1:secondaryLabelColor hierarchical-1:primary SFSymbolsPreview8A8A8E" d="M97.7843-12.9855L97.7843-46.1117L97.7843-46.4258L97.7843-59.7869C97.7843-64.2695 96.7159-67.5982 94.4704-69.8226C92.246-72.0471 88.8276-73.1555 84.3429-73.1555L71.5053-73.1555L71.5053-80.6565C71.5053-82.2838 70.7966-83.4651 69.339-84.0252C67.8815-84.5853 66.4639-84.3469 65.1529-83.057L53.103-72.5319C51.6799-71.3051 50.9922-70.0362 50.9922-68.7063C50.9922-67.3974 51.6799-66.1285 53.103-64.8806L65.1529-54.3555C66.4829-53.1532 67.9004-52.8083 69.339-53.3874C70.7966-53.9685 71.5053-55.0622 71.5053-56.6684L71.5053-64.2949L83.4155-64.2949C85.3084-64.2949 86.6573-63.8077 87.6107-62.9229C88.5641-61.9505 89.0303-60.5406 89.0303-58.5601L89.0303-46.4924L89.0303-46.1993L89.0303-13.1608C83.2599-11.3554 79.0088-5.85564 79.0088 0.471539C79.0088 8.37335 85.4522 14.8168 93.3541 14.8168C101.256 14.8168 107.699 8.37335 107.699 0.471539C107.718-5.68042 103.467-11.0926 97.7843-12.9855ZM93.2854 5.83181C90.4156 5.83181 88.188 3.51659 88.188 0.734373C88.188-2.13545 90.5032-4.36307 93.2854-4.36307C96.1552-4.36307 98.3828-2.04784 98.3828 0.734373C98.4704 3.51659 96.1552 5.83181 93.2854 5.83181Z"/>
  </g>
  <g id="Regular-M" transform="matrix(1 0 0 1 1392.13 1126)">
   <path class="multicolor-0:secondaryLabelColor hierarchical-0:secondary SFSymbolsPreview8A8A8E" d="M29.6556-9.46299L29.6556-57.641C34.5154-59.3226 37.9835-63.904 37.9835-69.2278C37.9835-75.978 32.4974-81.4641 25.6429-81.4641C18.8926-81.4641 13.4066-75.978 13.4066-69.2278C13.4066-63.8229 16.8747-59.2183 21.7345-57.641L21.7345-9.46299C16.8747-7.78134 13.4066-3.19994 13.4066 2.12383C13.4066 8.87404 18.8926 14.3601 25.6429 14.3601C32.3931 14.3601 37.8791 8.87404 37.8791 2.12383C37.9835-3.19994 34.5154-7.78134 29.6556-9.46299ZM25.7472 6.69419C23.2185 6.69419 21.2812 4.65259 21.2812 2.22819C21.2812-0.300574 23.3228-2.23781 25.7472-2.23781C28.1716-2.23781 30.2132-0.196209 30.2132 2.22819C30.2132 4.65259 28.1716 6.69419 25.7472 6.69419ZM24.934-72.9849C27.0213-73.4264 29.0629-72.1283 29.5044-70.1454C29.9458-68.0581 28.6477-66.1209 26.5604-65.6794C24.4732-65.2379 22.5359-66.536 22.0944-68.5189C21.5254-70.5019 22.8467-72.5435 24.934-72.9849Z"/>
   <path class="multicolor-1:secondaryLabelColor hierarchical-1:primary SFSymbolsPreview8A8A8E" d="M93.6608-9.46299L93.6608-45.7597L93.6608-46.0613L93.6608-59.7622C93.6608-64.4716 92.5589-67.9514 90.2507-70.2596C87.9424-72.5679 84.3815-73.693 79.6953-73.693L66.8762-73.693L66.8762-81.2911C66.8762-82.8338 66.1804-83.9936 64.7653-84.5619C63.3503-85.1302 61.9585-84.9214 60.6943-83.6573L48.9902-73.554C47.5173-72.2898 46.8214-71.0256 46.8214-69.7382C46.8214-68.4508 47.5173-67.1866 48.9902-65.9224L60.6943-55.8192C61.9818-54.6593 63.3735-54.323 64.7653-54.9145C66.1804-55.4828 66.8762-56.5383 66.8762-58.0809L66.8762-65.8299L79.5677-65.8299C81.7141-65.8299 83.2571-65.2962 84.3243-64.3101C85.3916-63.2196 85.9252-61.6533 85.9252-59.4026L85.9252-46.1657L85.9252-45.864L85.9252-9.67172C81.0654-8.09444 77.493-3.40867 77.493 1.9151C77.493 8.66531 82.979 14.1513 89.7292 14.1513C96.4794 14.1513 101.965 8.66531 101.965 1.9151C101.989-3.19994 98.4163-7.78134 93.6608-9.46299ZM89.6481 6.69419C87.1193 6.69419 85.1821 4.65259 85.1821 2.22819C85.1821-0.300574 87.2237-2.23781 89.6481-2.23781C92.1769-2.23781 94.1141-0.196209 94.1141 2.22819C94.2185 4.65259 92.1769 6.69419 89.6481 6.69419Z"/>
  </g>
  <g id="Light-M" transform="matrix(1 0 0 1 1099.25 1126)">
   <path class="multicolor-0:secondaryLabelColor hierarchical-0:secondary SFSymbolsPreview8A8A8E" d="M26.8295-7.29046L26.8295-58.8974C31.0864-60.2023 34.1777-64.1431 34.1777-68.7886C34.1777-74.4838 29.5206-79.1408 23.7588-79.1408C18.0636-79.1408 13.4066-74.4838 13.4066-68.7886C13.4066-64.1373 16.4978-60.1356 20.7548-58.8974L20.7548-7.29046C16.4978-5.98562 13.4066-2.0448 13.4066 2.60071C13.4066 8.29585 18.0636 12.9529 23.7588 12.9529C29.4539 12.9529 34.111 8.29585 34.111 2.60071C34.1777-2.0448 31.0864-5.98562 26.8295-7.29046ZM23.8255 7.13339C21.3344 7.13339 19.3595 5.09179 19.3595 2.66739C19.3595 0.176308 21.4011-1.79861 23.8255-1.79861C26.2499-1.79861 28.2915 0.242992 28.2915 2.66739C28.2915 5.09179 26.2499 7.13339 23.8255 7.13339ZM21.6934-71.1892C23.0271-72.3466 25.0687-72.2544 26.2261-70.9874C27.3835-69.6537 27.2912-67.6788 25.9575-66.5214C24.6239-65.364 22.649-65.4562 21.4915-66.7232C20.2065-67.9902 20.3597-70.0318 21.6934-71.1892Z"/>
   <path class="multicolor-1:secondaryLabelColor hierarchical-1:primary SFSymbolsPreview8A8A8E" d="M87.0289-7.29046L87.0289-43.8886L87.0289-44.2656L87.0289-59.2853C87.0289-63.7686 86.0024-67.0977 83.8825-69.2175C81.7627-71.3374 78.4278-72.4248 74.0054-72.4248L60.056-72.4248L60.056-80.136C60.056-81.4902 59.4731-82.4616 58.2465-82.9169C57.0199-83.3721 55.8542-83.2388 54.8161-82.2007L43.3757-72.4742C42.2042-71.4361 41.6214-70.398 41.6214-69.299C41.6214-68.2 42.2042-67.1619 43.3757-66.1238L54.8161-56.3973C55.9151-55.4259 57.0808-55.165 58.2465-55.6811C59.4731-56.1364 60.056-57.0411 60.056-58.3953L60.056-66.295L73.8778-66.295C76.401-66.295 78.1701-65.7237 79.3127-64.5868C80.4554-63.3833 81.0267-61.5533 81.0267-58.9634L81.0267-44.3323L81.0267-43.9553L81.0267-7.42383C76.7697-6.18567 73.6118-2.17817 73.6118 2.46734C73.6118 8.16248 78.2689 12.8195 83.964 12.8195C89.6592 12.8195 94.3162 8.16248 94.3162 2.46734C94.3771-2.0448 91.2192-5.98562 87.0289-7.29046ZM83.9582 7.13339C81.4672 7.13339 79.4922 5.09179 79.4922 2.66739C79.4922 0.176308 81.5338-1.79861 83.9582-1.79861C86.4493-1.79861 88.4242 0.242992 88.4242 2.66739C88.4909 5.09179 86.4493 7.13339 83.9582 7.13339Z"/>
  </g>
  <g id="Thin-M" transform="matrix(1 0 0 1 807.593 1126)">
   <path class="multicolor-0:secondaryLabelColor hierarchical-0:secondary SFSymbolsPreview8A8A8E" d="M23.0918-4.41711L23.0918-60.5592C26.5513-61.3657 29.1442-64.4593 29.1442-68.2077C29.1442-72.5075 25.5836-76.0681 21.267-76.0681C16.9673-76.0681 13.4066-72.5075 13.4066-68.2077C13.4066-64.5532 15.9995-61.3488 19.459-60.5592L19.459-4.41711C15.9995-3.61063 13.4066-0.517029 13.4066 3.23142C13.4066 7.53115 16.9673 11.0918 21.267 11.0918C25.5667 11.0918 29.1273 7.53115 29.1273 3.23142C29.1442-0.517029 26.5513-3.61063 23.0918-4.41711ZM21.2838 7.71427C18.8426 7.71427 16.8178 5.67267 16.8178 3.24827C16.8178 0.807022 18.8594-1.21773 21.2838-1.21773C23.7082-1.21773 25.7498 0.82387 25.7498 3.24827C25.7498 5.67267 23.7082 7.71427 21.2838 7.71427ZM17.4075-68.8142C17.7444-70.9185 19.786-72.421 21.8903-72.1009C23.9946-71.764 25.4971-69.7392 25.1602-67.6349C24.8232-65.5306 22.7985-64.0281 20.6942-64.3482C18.4623-64.6683 17.0705-66.7099 17.4075-68.8142Z"/>
   <path class="multicolor-1:secondaryLabelColor hierarchical-1:primary SFSymbolsPreview8A8A8E" d="M78.2577-4.41711L78.2577-41.4139L78.2577-41.8906L78.2577-58.6546C78.2577-62.8389 77.3308-65.9687 75.4602-67.8393C73.5896-69.7099 70.5537-70.7476 66.4802-70.7476L51.0356-70.7476L51.0356-78.6082C51.0356-79.7133 50.6022-80.4355 49.6248-80.7412C48.6474-81.047 47.7807-81.0133 47.0416-80.2742L35.9501-71.0461C35.1773-70.3071 34.7439-69.568 34.7439-68.7181C34.7439-67.8683 35.1773-67.1292 35.9501-66.3901L47.0416-57.1621C47.8914-56.4398 48.7581-56.2785 49.6248-56.695C50.6022-57.0008 51.0356-57.7061 51.0356-58.8112L51.0356-66.9102L66.3526-66.9102C69.3741-66.9102 71.4422-66.289 72.6845-64.9528C73.9268-63.5998 74.548-61.4209 74.548-58.3825L74.548-41.9075L74.548-41.4308L74.548-4.4508C71.0884-3.66118 68.4787-0.550724 68.4787 3.19773C68.4787 7.49745 72.0393 11.0581 76.3391 11.0581C80.6388 11.0581 84.1994 7.49745 84.1994 3.19773C84.3102-0.517029 81.7005-3.61063 78.2577-4.41711ZM76.433 7.71427C73.9917 7.71427 71.967 5.67267 71.967 3.24827C71.967 0.807022 74.0086-1.21773 76.433-1.21773C78.8742-1.21773 80.899 0.82387 80.899 3.24827C80.9158 5.67267 78.8742 7.71427 76.433 7.71427Z"/>
  </g>
  <g id="Ultralight-M" transform="matrix(1 0 0 1 513.472 1126)">
   <path class="multicolor-0:secondaryLabelColor hierarchical-0:secondary SFSymbolsPreview8A8A8E" d="M21.1773-2.94539L21.1773-61.4103C24.2284-61.9616 26.566-64.6212 26.566-67.9102C26.566-71.4952 23.567-74.4943 19.9907-74.4943C16.4057-74.4943 13.4066-71.4952 13.4066-67.9102C13.4066-64.7662 15.7442-61.9702 18.7953-61.4103L18.7953-2.94539C15.7442-2.39418 13.4066 0.265487 13.4066 3.55447C13.4066 7.13947 16.4057 10.1385 19.9907 10.1385C23.5757 10.1385 26.5747 7.13947 26.5747 3.55447C26.566 0.265487 24.2284-2.39418 21.1773-2.94539ZM19.982 8.01179C17.5663 8.01179 15.516 5.97019 15.516 3.54579C15.516 1.13007 17.5576-0.920207 19.982-0.920207C22.4064-0.920207 24.448 1.12139 24.448 3.54579C24.448 5.97019 22.4064 8.01179 19.982 8.01179ZM15.2122-67.5978C15.0387-70.1871 17.0803-72.5064 19.6695-72.6713C22.2588-72.8449 24.5782-70.7946 24.7517-68.2053C24.9253-65.616 22.875-63.2967 20.2857-63.1318C17.5688-62.9669 15.3858-65.0085 15.2122-67.5978Z"/>
   <path class="multicolor-1:secondaryLabelColor hierarchical-1:primary SFSymbolsPreview8A8A8E" d="M73.7652-2.94539L73.7652-40.1464L73.7652-40.6742L73.7652-58.3315C73.7652-62.3627 72.8893-65.3903 71.1463-67.1333C69.4033-68.8764 66.5206-69.8885 62.6257-69.8885L46.4154-69.8885L46.4154-77.8257C46.4154-78.8031 46.0586-79.3977 45.2088-79.6269C44.359-79.8561 43.6455-79.8734 43.0595-79.2875L32.1467-70.3147C31.5781-69.7287 31.2213-69.1428 31.2213-68.4206C31.2213-67.6984 31.5781-67.1125 32.1467-66.5265L43.0595-57.5537C43.7817-56.9591 44.4953-56.8489 45.2088-57.2143C46.0586-57.4435 46.4154-58.0468 46.4154-59.0242L46.4154-67.2253L62.4981-67.2253C65.7749-67.2253 67.9962-66.5786 69.2895-65.1403C70.5829-63.7107 71.2296-61.3531 71.2296-58.085L71.2296-40.6655L71.2296-40.1377L71.2296-2.92803C68.1784-2.36814 65.8495 0.282844 65.8495 3.57183C65.8495 7.15683 68.8486 10.1559 72.4336 10.1559C76.0186 10.1559 79.0176 7.15683 79.0176 3.57183C79.1539 0.265487 76.825-2.39418 73.7652-2.94539ZM72.5785 8.01179C70.1628 8.01179 68.1125 5.97019 68.1125 3.54579C68.1125 1.13007 70.1541-0.920207 72.5785-0.920207C74.9942-0.920207 77.0445 1.12139 77.0445 3.54579C77.0358 5.97019 74.9942 8.01179 72.5785 8.01179Z"/>
  </g>
  <g id="Black-S" transform="matrix(1 0 0 1 2871.87 696)">
   <path class="multicolor-0:secondaryLabelColor hierarchical-0:secondary SFSymbolsPreview8A8A8E" d="M38.2066-31.65L38.2066-38.15C46.4066-40.45 52.4066-47.95 52.4066-56.85C52.4066-67.65 43.7066-76.35 32.9066-76.35C22.1066-76.35 13.4066-67.75 13.4066-56.95C13.4066-48.05 19.4066-40.55 27.6066-38.25L27.6066-31.75C19.4066-29.35 13.4066-21.85 13.4066-12.95C13.4066-2.15 22.1066 6.55 32.9066 6.55C43.7066 6.55 52.4066-2.15 52.4066-12.95C52.4066-21.85 46.4066-29.35 38.2066-31.65ZM32.9066-6.45C29.3066-6.45 26.4066-9.35 26.4066-12.95C26.4066-16.55 29.3066-19.45 32.9066-19.45C36.5066-19.45 39.4066-16.55 39.4066-12.95C39.4066-9.35 36.5066-6.45 32.9066-6.45ZM32.9066-63.45C36.5066-63.45 39.4066-60.55 39.4066-56.95C39.4066-53.35 36.5066-50.45 32.9066-50.45C29.3066-50.45 26.4066-53.35 26.4066-56.95C26.4066-60.55 29.3066-63.45 32.9066-63.45Z"/>
   <path class="multicolor-1:secondaryLabelColor hierarchical-1:primary SFSymbolsPreview8A8A8E" d="M95.5066-31.65L95.5066-45.05L95.5066-45.35L95.5066-54.55C95.5066-57.15 94.8066-59.15 93.3066-60.55C91.9066-61.95 89.8066-62.75 87.1066-62.75L76.9066-62.75L76.9066-68.25C76.9066-69.85 76.3066-70.85 75.0066-71.25C73.7066-71.65 72.5066-71.35 71.3066-70.25L60.5066-60.35C59.6066-59.55 59.1066-58.55 59.1066-57.35C59.1066-56.25 59.6066-55.25 60.5066-54.35L71.3066-44.45C72.5066-43.35 73.7066-43.05 75.0066-43.45C76.3066-43.95 76.9066-44.95 76.9066-46.45L76.9066-51.95L83.2066-51.95C83.7066-51.95 84.0066-51.75 84.3066-51.45C84.6066-51.15 84.7066-50.65 84.7066-50.15L84.7066-45.25L84.7066-45.05L84.7066-31.65C76.6066-29.35 70.6066-21.85 70.6066-12.95C70.6066-2.25 79.4066 6.55 90.1066 6.55C100.807 6.55 109.607-2.25 109.607-12.95C109.607-21.85 103.607-29.35 95.5066-31.65ZM90.1066-6.45C86.5066-6.45 83.6066-9.35 83.6066-12.95C83.6066-16.55 86.5066-19.45 90.1066-19.45C93.7066-19.45 96.6066-16.55 96.6066-12.95C96.6066-9.35 93.7066-6.45 90.1066-6.45Z"/>
  </g>
  <g id="Heavy-S" transform="matrix(1 0 0 1 2577.88 696)">
   <path class="multicolor-0:secondaryLabelColor hierarchical-0:secondary SFSymbolsPreview8A8A8E" d="M35.6811-27.9777L35.6811-41.4639C42.9135-43.5751 48.1818-50.2254 48.1818-58.0869C48.1818-67.7068 40.4259-75.4627 30.7824-75.4627C21.1625-75.4627 13.4066-67.7832 13.4066-58.1633C13.4066-50.2782 18.6749-43.6279 25.9072-41.5403L25.9072-28.0541C18.6749-25.8665 13.4066-19.2162 13.4066-11.3546C13.4066-1.73475 21.1625 6.02117 30.7824 6.02117C40.4023 6.02117 48.1582-1.73475 48.1582-11.3546C48.1818-19.2162 42.9135-25.8665 35.6811-27.9777ZM30.806-5.53911C27.5836-5.53911 25.014-8.13228 25.014-11.331C25.014-14.5534 27.6072-17.123 30.806-17.123C34.0047-17.123 36.5979-14.5298 36.5979-11.331C36.5979-8.13228 34.0047-5.53911 30.806-5.53911ZM30.806-63.9788C34.0283-63.9788 36.6215-61.3857 36.6215-58.1869C36.6215-54.9645 34.0283-52.395 30.806-52.395C27.5836-52.395 25.014-54.9881 25.014-58.1869C24.9904-61.3857 27.5836-63.9788 30.806-63.9788Z"/>
   <path class="multicolor-1:secondaryLabelColor hierarchical-1:primary SFSymbolsPreview8A8A8E" d="M91.7302-27.9777L91.7302-44.8944L91.7302-45.1708L91.7302-54.5832C91.7302-57.4664 90.983-59.6552 89.3886-61.1732C87.8706-62.6913 85.5818-63.5149 82.6222-63.5149L72.5874-63.5149L72.5874-69.1093C72.5874-70.6385 71.9874-71.6385 70.711-72.0621C69.4346-72.4857 68.2346-72.2093 67.0582-71.1093L56.6122-61.6341C55.6178-60.7633 55.0942-59.7397 55.0942-58.5633C55.0942-57.4633 55.6178-56.4397 56.6122-55.4925L67.0582-46.0173C68.2346-44.9409 69.4346-44.6409 70.711-45.0645C71.9874-45.5645 72.5874-46.5409 72.5874-47.9937L72.5874-53.6117L79.619-53.6117C80.3551-53.6117 80.8439-53.3645 81.2619-52.9701C81.6799-52.5521 81.8507-51.9105 81.8507-51.1509L81.8507-45.118L81.8507-44.918L81.8507-28.0249C74.6948-25.9373 69.4029-19.2634 69.4029-11.4018C69.4029-1.85835 77.2352 5.97396 86.7787 5.97396C96.3222 5.97396 104.155-1.85835 104.155-11.4018C104.155-19.2162 98.8625-25.8665 91.7302-27.9777ZM86.7551-5.53911C83.5327-5.53911 80.9631-8.13228 80.9631-11.331C80.9631-14.5534 83.5563-17.123 86.7551-17.123C89.9774-17.123 92.547-14.5298 92.547-11.331C92.5706-8.13228 89.9774-5.53911 86.7551-5.53911Z"/>
  </g>
  <g id="Bold-S" transform="matrix(1 0 0 1 2284.22 696)">
   <path class="multicolor-0:secondaryLabelColor hierarchical-0:secondary SFSymbolsPreview8A8A8E" d="M32.8566-23.8703L32.8566-45.1703C39.0066-47.0703 43.4566-52.7703 43.4566-59.4703C43.4566-67.7703 36.7566-74.4703 28.4066-74.4703C20.1066-74.4703 13.4066-67.8203 13.4066-59.5203C13.4066-52.7703 17.8566-47.0703 24.0066-45.2203L24.0066-23.9203C17.8566-21.9703 13.4066-16.2703 13.4066-9.57031C13.4066-1.27031 20.1066 5.42969 28.4066 5.42969C36.7066 5.42969 43.4066-1.27031 43.4066-9.57031C43.4566-16.2703 39.0066-21.9703 32.8566-23.8703ZM28.4566-4.52031C25.6566-4.52031 23.4566-6.77031 23.4566-9.52031C23.4566-12.3203 25.7066-14.5203 28.4566-14.5203C31.2066-14.5203 33.4566-12.2703 33.4566-9.52031C33.4566-6.77031 31.2066-4.52031 28.4566-4.52031ZM28.4566-64.5703C31.2566-64.5703 33.5066-62.3203 33.5066-59.5703C33.5066-56.7703 31.2566-54.5703 28.4566-54.5703C25.6566-54.5703 23.4566-56.8203 23.4566-59.5703C23.4066-62.3203 25.6566-64.5703 28.4566-64.5703Z"/>
   <path class="multicolor-1:secondaryLabelColor hierarchical-1:primary SFSymbolsPreview8A8A8E" d="M87.5066-23.8703L87.5066-44.7203L87.5066-44.9703L87.5066-54.6203C87.5066-57.8203 86.7066-60.2203 85.0066-61.8703C83.3566-63.5203 80.8566-64.3703 77.6066-64.3703L67.7566-64.3703L67.7566-70.0703C67.7566-71.5203 67.1566-72.5203 65.9066-72.9703C64.6566-73.4203 63.4566-73.1703 62.3066-72.0703L52.2566-63.0703C51.1566-62.1203 50.6066-61.0703 50.6066-59.9203C50.6066-58.8203 51.1566-57.7703 52.2566-56.7703L62.3066-47.7703C63.4566-46.7203 64.6566-46.4203 65.9066-46.8703C67.1566-47.3703 67.7566-48.3203 67.7566-49.7203L67.7566-55.4703L75.6066-55.4703C76.6066-55.4703 77.3066-55.1703 77.8566-54.6703C78.4066-54.1203 78.6566-53.3203 78.6566-52.2703L78.6566-44.9703L78.6566-44.7703L78.6566-23.9703C72.5566-22.1203 68.0566-16.3703 68.0566-9.67031C68.0566-1.42031 74.8066 5.32969 83.0566 5.32969C91.3066 5.32969 98.0566-1.42031 98.0566-9.67031C98.0566-16.2703 93.5566-21.9703 87.5066-23.8703ZM83.0066-4.52031C80.2066-4.52031 78.0066-6.77031 78.0066-9.52031C78.0066-12.3203 80.2566-14.5203 83.0066-14.5203C85.8066-14.5203 88.0066-12.2703 88.0066-9.52031C88.0566-6.77031 85.8066-4.52031 83.0066-4.52031Z"/>
  </g>
  <g id="Semibold-S" transform="matrix(1 0 0 1 1989.61 696)">
   <path class="multicolor-0:secondaryLabelColor hierarchical-0:secondary SFSymbolsPreview8A8A8E" d="M30.9092-21.0385L30.9092-47.7257C36.313-49.4801 40.1988-54.5249 40.1988-60.4241C40.1988-67.8141 34.2268-73.7861 26.7686-73.7861C19.3786-73.7861 13.4066-67.8459 13.4066-60.4559C13.4066-54.4885 17.2924-49.4437 22.6962-47.7575L22.6962-21.0703C17.2924-19.2841 13.4066-14.2393 13.4066-8.3401C13.4066-0.950103 19.3786 5.0219 26.7686 5.0219C34.1586 5.0219 40.1306-0.950103 40.1306-8.3401C40.1988-14.2393 36.313-19.2841 30.9092-21.0385ZM26.8368-3.8179C24.328-3.8179 22.3828-5.8313 22.3828-8.2719C22.3828-10.7807 24.3962-12.7259 26.8368-12.7259C29.2774-12.7259 31.2908-10.7125 31.2908-8.2719C31.2908-5.8313 29.2774-3.8179 26.8368-3.8179ZM26.8368-64.9781C29.3456-64.9781 31.359-62.9647 31.359-60.5241C31.359-58.0153 29.3456-56.0701 26.8368-56.0701C24.328-56.0701 22.3828-58.0835 22.3828-60.5241C22.3146-62.9647 24.328-64.9781 26.8368-64.9781Z"/>
   <path class="multicolor-1:secondaryLabelColor hierarchical-1:primary SFSymbolsPreview8A8A8E" d="M84.5946-21.0385L84.5946-44.6003L84.5946-44.8321L84.5946-54.6459C84.5946-58.0643 83.7582-60.6099 81.9854-62.3509C80.2444-64.0919 77.5988-64.9601 74.1486-64.9601L64.426-64.9601L64.426-70.7329C64.426-72.1283 63.826-73.1283 62.5942-73.5965C61.3624-74.0647 60.1624-73.8329 59.0306-72.7329L49.2536-64.0605C48.0808-63.0559 47.5126-61.9877 47.5126-60.8559C47.5126-59.7559 48.0808-58.6877 49.2536-57.6513L59.0306-48.9789C60.1624-47.9471 61.3624-47.6471 62.5942-48.1153C63.826-48.6153 64.426-49.5471 64.426-50.9107L64.426-56.7517L72.8402-56.7517C74.0222-56.7517 74.8678-56.4153 75.5088-55.8425C76.1498-55.2015 76.4544-54.2923 76.4544-53.0421L76.4544-44.8685L76.4544-44.6685L76.4544-21.1749C71.0824-19.4887 67.1284-14.3757 67.1284-8.4765C67.1284-1.1183 73.1322 4.8855 80.4904 4.8855C87.8486 4.8855 93.8524-1.1183 93.8524-8.4765C93.8524-14.2393 89.8984-19.2841 84.5946-21.0385ZM80.4222-3.8179C77.9134-3.8179 75.9682-5.8313 75.9682-8.2719C75.9682-10.7807 77.9816-12.7259 80.4222-12.7259C82.931-12.7259 84.8762-10.7125 84.8762-8.2719C84.9444-5.8313 82.931-3.8179 80.4222-3.8179Z"/>
  </g>
  <g id="Medium-S" transform="matrix(1 0 0 1 1694.5 696)">
   <path class="multicolor-0:secondaryLabelColor hierarchical-0:secondary SFSymbolsPreview8A8A8E" d="M29.4326-18.8913L29.4326-49.6633C34.2706-51.3073 37.7286-55.8553 37.7286-61.1473C37.7286-67.8473 32.3086-73.2673 25.5266-73.2673C18.8266-73.2673 13.4066-67.8653 13.4066-61.1653C13.4066-55.7913 16.8646-51.2433 21.7026-49.6813L21.7026-18.9093C16.8646-17.2473 13.4066-12.6993 13.4066-7.40731C13.4066-0.707308 18.8266 4.71269 25.5266 4.71269C32.2266 4.71269 37.6466-0.707308 37.6466-7.40731C37.7286-12.6993 34.2706-17.2473 29.4326-18.8913ZM25.6086-3.28531C23.3206-3.28531 21.5686-5.11931 21.5686-7.32531C21.5686-9.61331 23.4026-11.3653 25.6086-11.3653C27.8146-11.3653 29.6486-9.53131 29.6486-7.32531C29.6486-5.11931 27.8146-3.28531 25.6086-3.28531ZM25.6086-65.2873C27.8966-65.2873 29.7306-63.4533 29.7306-61.2473C29.7306-58.9593 27.8966-57.2073 25.6086-57.2073C23.3206-57.2073 21.5686-59.0413 21.5686-61.2473C21.4866-63.4533 23.3206-65.2873 25.6086-65.2873Z"/>
   <path class="multicolor-1:secondaryLabelColor hierarchical-1:primary SFSymbolsPreview8A8A8E" d="M82.3866-18.8913L82.3866-44.5093L82.3866-44.7273L82.3866-54.6653C82.3866-58.2493 81.5226-60.9053 79.6946-62.7153C77.8846-64.5253 75.1286-65.4073 71.5266-65.4073L61.9006-65.4073L61.9006-71.2353C61.9006-72.5893 61.3006-73.5893 60.0826-74.0713C58.8646-74.5533 57.6646-74.3353 56.5466-73.2353L46.9766-64.8113C45.7486-63.7653 45.1666-62.6833 45.1666-61.5653C45.1666-60.4653 45.7486-59.3833 46.9766-58.3193L56.5466-49.8953C57.6646-48.8773 58.8646-48.5773 60.0826-49.0593C61.3006-49.5593 61.9006-50.4773 61.9006-51.8133L61.9006-57.7233L70.7426-57.7233C72.0626-57.7233 73.0186-57.3593 73.7286-56.7313C74.4386-56.0213 74.7846-55.0293 74.7846-53.6273L74.7846-44.7913L74.7846-44.5913L74.7846-19.0553C69.9646-17.4933 66.4246-12.8633 66.4246-7.57131C66.4246-0.889308 71.8626 4.54869 78.5446 4.54869C85.2266 4.54869 90.6646-0.889308 90.6646-7.57131C90.6646-12.6993 87.1246-17.2473 82.3866-18.8913ZM78.4626-3.28531C76.1746-3.28531 74.4226-5.11931 74.4226-7.32531C74.4226-9.61331 76.2566-11.3653 78.4626-11.3653C80.7506-11.3653 82.5026-9.53131 82.5026-7.32531C82.5846-5.11931 80.7506-3.28531 78.4626-3.28531Z"/>
  </g>
  <g id="Regular-S" transform="matrix(1 0 0 1 1399.86 696)">
   <path class="multicolor-0:secondaryLabelColor hierarchical-0:secondary SFSymbolsPreview8A8A8E" d="M27.5066-16.0906L27.5066-52.1906C31.6066-53.6906 34.5066-57.5906 34.5066-62.0906C34.5066-67.8906 29.8066-72.5906 23.9066-72.5906C18.1066-72.5906 13.4066-67.8906 13.4066-62.0906C13.4066-57.4906 16.3066-53.5906 20.4066-52.1906L20.4066-16.0906C16.3066-14.5906 13.4066-10.6906 13.4066-6.19062C13.4066-0.39062 18.1066 4.30938 23.9066 4.30938C29.7066 4.30938 34.4066-0.39062 34.4066-6.19062C34.5066-10.6906 31.6066-14.5906 27.5066-16.0906ZM24.0066-2.59062C22.0066-2.59062 20.5066-4.19062 20.5066-6.09062C20.5066-8.09062 22.1066-9.59062 24.0066-9.59062C25.9066-9.59062 27.5066-7.99062 27.5066-6.09062C27.5066-4.19062 25.9066-2.59062 24.0066-2.59062ZM24.0066-65.6906C26.0066-65.6906 27.6066-64.0906 27.6066-62.1906C27.6066-60.1906 26.0066-58.6906 24.0066-58.6906C22.0066-58.6906 20.5066-60.2906 20.5066-62.1906C20.4066-64.0906 22.0066-65.6906 24.0066-65.6906Z"/>
   <path class="multicolor-1:secondaryLabelColor hierarchical-1:primary SFSymbolsPreview8A8A8E" d="M79.5066-16.0906L79.5066-44.3906L79.5066-44.5906L79.5066-54.6906C79.5066-58.4906 78.6066-61.2906 76.7066-63.1906C74.8066-65.0906 71.9066-65.9906 68.1066-65.9906L58.6066-65.9906L58.6066-71.8906C58.6066-73.1906 58.0066-74.1906 56.8066-74.6906C55.6066-75.1906 54.4066-74.9906 53.3066-73.8906L44.0066-65.7906C42.7066-64.6906 42.1066-63.5906 42.1066-62.4906C42.1066-61.3906 42.7066-60.2906 44.0066-59.1906L53.3066-51.0906C54.4066-50.0906 55.6066-49.7906 56.8066-50.2906C58.0066-50.7906 58.6066-51.6906 58.6066-52.9906L58.6066-58.9906L68.0066-58.9906C69.5066-58.9906 70.6066-58.5906 71.4066-57.8906C72.2066-57.0906 72.6066-55.9906 72.6066-54.3906L72.6066-44.6906L72.6066-44.4906L72.6066-16.2906C68.5066-14.8906 65.5066-10.8906 65.5066-6.39062C65.5066-0.59062 70.2066 4.10938 76.0066 4.10938C81.8066 4.10938 86.5066-0.59062 86.5066-6.39062C86.5066-10.6906 83.5066-14.5906 79.5066-16.0906ZM75.9066-2.59062C73.9066-2.59062 72.4066-4.19062 72.4066-6.09062C72.4066-8.09062 74.0066-9.59062 75.9066-9.59062C77.9066-9.59062 79.4066-7.99062 79.4066-6.09062C79.5066-4.19062 77.9066-2.59062 75.9066-2.59062Z"/>
  </g>
  <g id="Light-S" transform="matrix(1 0 0 1 1106.54 696)">
   <path class="multicolor-0:secondaryLabelColor hierarchical-0:secondary SFSymbolsPreview8A8A8E" d="M25.0066-14.1688L25.0066-53.3021C28.5732-54.4688 31.1399-57.8021 31.1399-61.7021C31.1399-66.5688 27.1732-70.5354 22.2399-70.5354C17.3732-70.5354 13.4066-66.5688 13.4066-61.7021C13.4066-57.7688 15.9732-54.4021 19.5399-53.3021L19.5399-14.1688C15.9732-13.0021 13.4066-9.66876 13.4066-5.76876C13.4066-0.902096 17.3732 3.06457 22.2399 3.06457C27.1066 3.06457 31.0732-0.902096 31.0732-5.76876C31.1399-9.66876 28.5732-13.0021 25.0066-14.1688ZM22.3066-2.2021C20.3399-2.2021 18.8066-3.8021 18.8066-5.7021C18.8066-7.66876 20.4066-9.2021 22.3066-9.2021C24.2066-9.2021 25.8066-7.6021 25.8066-5.7021C25.8066-3.8021 24.2066-2.2021 22.3066-2.2021ZM21.1399-64.1021C22.4732-64.7354 24.0732-64.2021 24.7066-62.9354C25.3399-61.6021 24.8066-60.0688 23.4732-59.4354C22.1399-58.8021 20.6066-59.3354 19.9732-60.6021C19.2399-61.8688 19.8066-63.4688 21.1399-64.1021Z"/>
   <path class="multicolor-1:secondaryLabelColor hierarchical-1:primary SFSymbolsPreview8A8A8E" d="M73.6399-14.1688L73.6399-42.7354L73.6399-43.0021L73.6399-54.2688C73.6399-57.8688 72.8066-60.5354 71.0732-62.2688C69.3399-64.0021 66.6399-64.8688 63.0732-64.8688L52.5732-64.8688L52.5732-70.8688C52.5732-72.0021 52.0732-72.8354 51.0399-73.2354C50.0066-73.6354 49.0066-73.5021 48.1066-72.6021L39.0399-64.8354C38.0066-63.9354 37.5066-63.0354 37.5066-62.1021C37.5066-61.1688 38.0066-60.2688 39.0399-59.3688L48.1066-51.6021C49.0399-50.7688 50.0399-50.5354 51.0399-50.9688C52.0732-51.3688 52.5732-52.1354 52.5732-53.2688L52.5732-59.4021L62.9732-59.4021C64.8066-59.4021 66.1066-58.9688 66.9732-58.1354C67.8399-57.2354 68.2732-55.9021 68.2732-54.0021L68.2732-43.0688L68.2732-42.8021L68.2732-14.3021C64.7066-13.2021 62.0732-9.8021 62.0732-5.9021C62.0732-1.03543 66.0399 2.93124 70.9066 2.93124C75.7732 2.93124 79.7399-1.03543 79.7399-5.9021C79.7732-9.66876 77.1399-13.0021 73.6399-14.1688ZM70.8732-2.2021C68.9066-2.2021 67.3732-3.8021 67.3732-5.7021C67.3732-7.66876 68.9732-9.2021 70.8732-9.2021C72.8399-9.2021 74.3732-7.6021 74.3732-5.7021C74.4399-3.8021 72.8399-2.2021 70.8732-2.2021Z"/>
  </g>
  <g id="Thin-S" transform="matrix(1 0 0 1 814.299 696)">
   <path class="multicolor-0:secondaryLabelColor hierarchical-0:secondary SFSymbolsPreview8A8A8E" d="M21.7002-11.627L21.7002-54.7721C24.5615-55.4979 26.6873-58.0818 26.6873-61.1882C26.6873-64.8205 23.6905-67.8173 20.0357-67.8173C16.4034-67.8173 13.4066-64.8205 13.4066-61.1882C13.4066-58.1366 15.5325-55.4753 18.3937-54.7721L18.3937-11.627C15.5325-10.9011 13.4066-8.31728 13.4066-5.21082C13.4066-1.57857 16.4034 1.41821 20.0357 1.41821C23.6679 1.41821 26.6647-1.57857 26.6647-5.21082C26.6873-8.31728 24.5615-10.9011 21.7002-11.627ZM20.0583-1.68824C18.1357-1.68824 16.5583-3.28824 16.5583-5.18824C16.5583-7.11082 18.1583-8.68824 20.0583-8.68824C21.9583-8.68824 23.5583-7.08824 23.5583-5.18824C23.5583-3.28824 21.9583-1.68824 20.0583-1.68824ZM17.3486-62.0011C17.8002-63.4721 19.4002-64.3495 20.8712-63.9205C22.3421-63.4689 23.2196-61.8915 22.7679-60.4205C22.3163-58.9495 20.7389-58.0721 19.2679-58.5011C17.697-58.9302 16.897-60.5302 17.3486-62.0011Z"/>
   <path class="multicolor-1:secondaryLabelColor hierarchical-1:primary SFSymbolsPreview8A8A8E" d="M65.8808-11.627L65.8808-40.5463L65.8808-40.9011L65.8808-53.7108C65.8808-57.0463 65.1357-59.5366 63.6228-61.0495C62.1099-62.5624 59.6744-63.385 56.4163-63.385L44.5937-63.385L44.5937-69.5173C44.5937-70.4302 44.226-71.0431 43.4131-71.3108C42.6002-71.5786 41.8647-71.5334 41.2292-70.8979L32.4712-63.5721C31.7905-62.9366 31.4228-62.3011 31.4228-61.5882C31.4228-60.8753 31.7905-60.2399 32.4712-59.6044L41.2292-52.2786C41.9421-51.6657 42.6776-51.5205 43.4131-51.8657C44.226-52.1334 44.5937-52.7237 44.5937-53.6366L44.5937-59.9463L56.3163-59.9463C58.5905-59.9463 60.155-59.4689 61.1099-58.4592C62.0647-57.427 62.5421-55.785 62.5421-53.4882L62.5421-40.9237L62.5421-40.5689L62.5421-11.6721C59.6808-10.9689 57.5325-8.36244 57.5325-5.25598C57.5325-1.62373 60.5292 1.37305 64.1615 1.37305C67.7937 1.37305 70.7905-1.62373 70.7905-5.25598C70.8679-8.31728 68.7196-10.9011 65.8808-11.627ZM64.2163-1.68824C62.2937-1.68824 60.7163-3.28824 60.7163-5.18824C60.7163-7.11082 62.3163-8.68824 64.2163-8.68824C66.1389-8.68824 67.7163-7.08824 67.7163-5.18824C67.7389-3.28824 66.1389-1.68824 64.2163-1.68824Z"/>
  </g>
  <g id="Ultralight-S" transform="matrix(1 0 0 1 519.878 696)">
   <path class="multicolor-0:secondaryLabelColor hierarchical-0:secondary SFSymbolsPreview8A8A8E" d="M20.0066-10.325L20.0066-55.525C22.5066-56.025 24.4066-58.225 24.4066-60.925C24.4066-63.925 21.9066-66.425 18.9066-66.425C15.9066-66.425 13.4066-63.925 13.4066-60.925C13.4066-58.325 15.3066-56.025 17.8066-55.525L17.8066-10.325C15.3066-9.82505 13.4066-7.62505 13.4066-4.92505C13.4066-1.92505 15.9066 0.574951 18.9066 0.574951C21.9066 0.574951 24.4066-1.92505 24.4066-4.92505C24.4066-7.62505 22.5066-9.82505 20.0066-10.325ZM18.9066-1.42505C17.0066-1.42505 15.4066-3.02505 15.4066-4.92505C15.4066-6.82505 17.0066-8.42505 18.9066-8.42505C20.8066-8.42505 22.4066-6.82505 22.4066-4.92505C22.4066-3.02505 20.8066-1.42505 18.9066-1.42505ZM15.4066-60.925C15.4066-62.825 17.0066-64.425 18.9066-64.425C20.8066-64.425 22.4066-62.825 22.4066-60.925C22.4066-59.025 20.8066-57.425 18.9066-57.425C16.9066-57.425 15.4066-59.025 15.4066-60.925Z"/>
   <path class="multicolor-1:secondaryLabelColor hierarchical-1:primary SFSymbolsPreview8A8A8E" d="M61.9066-10.325L61.9066-39.425L61.9066-39.825L61.9066-53.425C61.9066-56.625 61.2066-59.025 59.8066-60.425C58.4066-61.825 56.1066-62.625 53.0066-62.625L40.5066-62.625L40.5066-68.825C40.5066-69.625 40.2066-70.125 39.5066-70.325C38.8066-70.525 38.2066-70.525 37.7066-70.025L29.1066-62.925C28.6066-62.425 28.3066-61.925 28.3066-61.325C28.3066-60.725 28.6066-60.225 29.1066-59.725L37.7066-52.625C38.3066-52.125 38.9066-52.025 39.5066-52.325C40.2066-52.525 40.5066-53.025 40.5066-53.825L40.5066-60.225L52.9066-60.225C55.4066-60.225 57.1066-59.725 58.1066-58.625C59.1066-57.525 59.6066-55.725 59.6066-53.225L59.6066-39.825L59.6066-39.425L59.6066-10.325C57.1066-9.82505 55.2066-7.62505 55.2066-4.92505C55.2066-1.92505 57.7066 0.574951 60.7066 0.574951C63.7066 0.574951 66.2066-1.92505 66.2066-4.92505C66.3066-7.62505 64.4066-9.82505 61.9066-10.325ZM60.8066-1.42505C58.9066-1.42505 57.3066-3.02505 57.3066-4.92505C57.3066-6.82505 58.9066-8.42505 60.8066-8.42505C62.7066-8.42505 64.3066-6.82505 64.3066-4.92505C64.3066-3.02505 62.7066-1.42505 60.8066-1.42505Z"/>
  </g>
 </g>
</svg>
